<?xml version="1.0" encoding="utf-8" standalone="no"?>
<!DOCTYPE svg PUBLIC "-//W3C//DTD SVG 1.1//EN"
  "http://www.w3.org/Graphics/SVG/1.1/DTD/svg11.dtd">
<!-- Created with matplotlib (https://matplotlib.org/) -->
<svg height="345.6pt" version="1.1" viewBox="0 0 460.8 345.6" width="460.8pt" xmlns="http://www.w3.org/2000/svg" xmlns:xlink="http://www.w3.org/1999/xlink">
 <defs>
  <style type="text/css">
*{stroke-linecap:butt;stroke-linejoin:round;}
  </style>
 </defs>
 <g id="figure_1">
  <g id="patch_1">
   <path d="M 0 345.6 
L 460.8 345.6 
L 460.8 0 
L 0 0 
z
" style="fill:#ffffff;"/>
  </g>
  <g id="axes_1">
   <g id="patch_2">
    <path d="M 57.6 307.584 
L 414.72 307.584 
L 414.72 41.472 
L 57.6 41.472 
z
" style="fill:#e5e5e5;"/>
   </g>
   <g id="matplotlib.axis_1">
    <g id="xtick_1">
     <g id="line2d_1">
      <path clip-path="url(#pf54addbd66)" d="M 73.832727 307.584 
L 73.832727 41.472 
" style="fill:none;stroke:#ffffff;stroke-linecap:square;stroke-width:0.8;"/>
     </g>
     <g id="line2d_2">
      <defs>
       <path d="M 0 0 
L 0 3.5 
" id="m620569b9b6" style="stroke:#555555;stroke-width:0.8;"/>
      </defs>
      <g>
       <use style="fill:#555555;stroke:#555555;stroke-width:0.8;" x="73.832727" xlink:href="#m620569b9b6" y="307.584"/>
      </g>
     </g>
     <g id="text_1">
      <!-- 0 -->
      <defs>
       <path d="M 31.78125 66.40625 
Q 24.171875 66.40625 20.328125 58.90625 
Q 16.5 51.421875 16.5 36.375 
Q 16.5 21.390625 20.328125 13.890625 
Q 24.171875 6.390625 31.78125 6.390625 
Q 39.453125 6.390625 43.28125 13.890625 
Q 47.125 21.390625 47.125 36.375 
Q 47.125 51.421875 43.28125 58.90625 
Q 39.453125 66.40625 31.78125 66.40625 
z
M 31.78125 74.21875 
Q 44.046875 74.21875 50.515625 64.515625 
Q 56.984375 54.828125 56.984375 36.375 
Q 56.984375 17.96875 50.515625 8.265625 
Q 44.046875 -1.421875 31.78125 -1.421875 
Q 19.53125 -1.421875 13.0625 8.265625 
Q 6.59375 17.96875 6.59375 36.375 
Q 6.59375 54.828125 13.0625 64.515625 
Q 19.53125 74.21875 31.78125 74.21875 
z
" id="DejaVuSans-48"/>
      </defs>
      <g style="fill:#555555;" transform="translate(70.651477 322.182437)scale(0.1 -0.1)">
       <use xlink:href="#DejaVuSans-48"/>
      </g>
     </g>
    </g>
    <g id="xtick_2">
     <g id="line2d_3">
      <path clip-path="url(#pf54addbd66)" d="M 123.85654 307.584 
L 123.85654 41.472 
" style="fill:none;stroke:#ffffff;stroke-linecap:square;stroke-width:0.8;"/>
     </g>
     <g id="line2d_4">
      <g>
       <use style="fill:#555555;stroke:#555555;stroke-width:0.8;" x="123.85654" xlink:href="#m620569b9b6" y="307.584"/>
      </g>
     </g>
     <g id="text_2">
      <!-- 100 -->
      <defs>
       <path d="M 12.40625 8.296875 
L 28.515625 8.296875 
L 28.515625 63.921875 
L 10.984375 60.40625 
L 10.984375 69.390625 
L 28.421875 72.90625 
L 38.28125 72.90625 
L 38.28125 8.296875 
L 54.390625 8.296875 
L 54.390625 0 
L 12.40625 0 
z
" id="DejaVuSans-49"/>
      </defs>
      <g style="fill:#555555;" transform="translate(114.31279 322.182437)scale(0.1 -0.1)">
       <use xlink:href="#DejaVuSans-49"/>
       <use x="63.623047" xlink:href="#DejaVuSans-48"/>
       <use x="127.246094" xlink:href="#DejaVuSans-48"/>
      </g>
     </g>
    </g>
    <g id="xtick_3">
     <g id="line2d_5">
      <path clip-path="url(#pf54addbd66)" d="M 173.880353 307.584 
L 173.880353 41.472 
" style="fill:none;stroke:#ffffff;stroke-linecap:square;stroke-width:0.8;"/>
     </g>
     <g id="line2d_6">
      <g>
       <use style="fill:#555555;stroke:#555555;stroke-width:0.8;" x="173.880353" xlink:href="#m620569b9b6" y="307.584"/>
      </g>
     </g>
     <g id="text_3">
      <!-- 200 -->
      <defs>
       <path d="M 19.1875 8.296875 
L 53.609375 8.296875 
L 53.609375 0 
L 7.328125 0 
L 7.328125 8.296875 
Q 12.9375 14.109375 22.625 23.890625 
Q 32.328125 33.6875 34.8125 36.53125 
Q 39.546875 41.84375 41.421875 45.53125 
Q 43.3125 49.21875 43.3125 52.78125 
Q 43.3125 58.59375 39.234375 62.25 
Q 35.15625 65.921875 28.609375 65.921875 
Q 23.96875 65.921875 18.8125 64.3125 
Q 13.671875 62.703125 7.8125 59.421875 
L 7.8125 69.390625 
Q 13.765625 71.78125 18.9375 73 
Q 24.125 74.21875 28.421875 74.21875 
Q 39.75 74.21875 46.484375 68.546875 
Q 53.21875 62.890625 53.21875 53.421875 
Q 53.21875 48.921875 51.53125 44.890625 
Q 49.859375 40.875 45.40625 35.40625 
Q 44.1875 33.984375 37.640625 27.21875 
Q 31.109375 20.453125 19.1875 8.296875 
z
" id="DejaVuSans-50"/>
      </defs>
      <g style="fill:#555555;" transform="translate(164.336603 322.182437)scale(0.1 -0.1)">
       <use xlink:href="#DejaVuSans-50"/>
       <use x="63.623047" xlink:href="#DejaVuSans-48"/>
       <use x="127.246094" xlink:href="#DejaVuSans-48"/>
      </g>
     </g>
    </g>
    <g id="xtick_4">
     <g id="line2d_7">
      <path clip-path="url(#pf54addbd66)" d="M 223.904166 307.584 
L 223.904166 41.472 
" style="fill:none;stroke:#ffffff;stroke-linecap:square;stroke-width:0.8;"/>
     </g>
     <g id="line2d_8">
      <g>
       <use style="fill:#555555;stroke:#555555;stroke-width:0.8;" x="223.904166" xlink:href="#m620569b9b6" y="307.584"/>
      </g>
     </g>
     <g id="text_4">
      <!-- 300 -->
      <defs>
       <path d="M 40.578125 39.3125 
Q 47.65625 37.796875 51.625 33 
Q 55.609375 28.21875 55.609375 21.1875 
Q 55.609375 10.40625 48.1875 4.484375 
Q 40.765625 -1.421875 27.09375 -1.421875 
Q 22.515625 -1.421875 17.65625 -0.515625 
Q 12.796875 0.390625 7.625 2.203125 
L 7.625 11.71875 
Q 11.71875 9.328125 16.59375 8.109375 
Q 21.484375 6.890625 26.8125 6.890625 
Q 36.078125 6.890625 40.9375 10.546875 
Q 45.796875 14.203125 45.796875 21.1875 
Q 45.796875 27.640625 41.28125 31.265625 
Q 36.765625 34.90625 28.71875 34.90625 
L 20.21875 34.90625 
L 20.21875 43.015625 
L 29.109375 43.015625 
Q 36.375 43.015625 40.234375 45.921875 
Q 44.09375 48.828125 44.09375 54.296875 
Q 44.09375 59.90625 40.109375 62.90625 
Q 36.140625 65.921875 28.71875 65.921875 
Q 24.65625 65.921875 20.015625 65.03125 
Q 15.375 64.15625 9.8125 62.3125 
L 9.8125 71.09375 
Q 15.4375 72.65625 20.34375 73.4375 
Q 25.25 74.21875 29.59375 74.21875 
Q 40.828125 74.21875 47.359375 69.109375 
Q 53.90625 64.015625 53.90625 55.328125 
Q 53.90625 49.265625 50.4375 45.09375 
Q 46.96875 40.921875 40.578125 39.3125 
z
" id="DejaVuSans-51"/>
      </defs>
      <g style="fill:#555555;" transform="translate(214.360416 322.182437)scale(0.1 -0.1)">
       <use xlink:href="#DejaVuSans-51"/>
       <use x="63.623047" xlink:href="#DejaVuSans-48"/>
       <use x="127.246094" xlink:href="#DejaVuSans-48"/>
      </g>
     </g>
    </g>
    <g id="xtick_5">
     <g id="line2d_9">
      <path clip-path="url(#pf54addbd66)" d="M 273.927979 307.584 
L 273.927979 41.472 
" style="fill:none;stroke:#ffffff;stroke-linecap:square;stroke-width:0.8;"/>
     </g>
     <g id="line2d_10">
      <g>
       <use style="fill:#555555;stroke:#555555;stroke-width:0.8;" x="273.927979" xlink:href="#m620569b9b6" y="307.584"/>
      </g>
     </g>
     <g id="text_5">
      <!-- 400 -->
      <defs>
       <path d="M 37.796875 64.3125 
L 12.890625 25.390625 
L 37.796875 25.390625 
z
M 35.203125 72.90625 
L 47.609375 72.90625 
L 47.609375 25.390625 
L 58.015625 25.390625 
L 58.015625 17.1875 
L 47.609375 17.1875 
L 47.609375 0 
L 37.796875 0 
L 37.796875 17.1875 
L 4.890625 17.1875 
L 4.890625 26.703125 
z
" id="DejaVuSans-52"/>
      </defs>
      <g style="fill:#555555;" transform="translate(264.384229 322.182437)scale(0.1 -0.1)">
       <use xlink:href="#DejaVuSans-52"/>
       <use x="63.623047" xlink:href="#DejaVuSans-48"/>
       <use x="127.246094" xlink:href="#DejaVuSans-48"/>
      </g>
     </g>
    </g>
    <g id="xtick_6">
     <g id="line2d_11">
      <path clip-path="url(#pf54addbd66)" d="M 323.951792 307.584 
L 323.951792 41.472 
" style="fill:none;stroke:#ffffff;stroke-linecap:square;stroke-width:0.8;"/>
     </g>
     <g id="line2d_12">
      <g>
       <use style="fill:#555555;stroke:#555555;stroke-width:0.8;" x="323.951792" xlink:href="#m620569b9b6" y="307.584"/>
      </g>
     </g>
     <g id="text_6">
      <!-- 500 -->
      <defs>
       <path d="M 10.796875 72.90625 
L 49.515625 72.90625 
L 49.515625 64.59375 
L 19.828125 64.59375 
L 19.828125 46.734375 
Q 21.96875 47.46875 24.109375 47.828125 
Q 26.265625 48.1875 28.421875 48.1875 
Q 40.625 48.1875 47.75 41.5 
Q 54.890625 34.8125 54.890625 23.390625 
Q 54.890625 11.625 47.5625 5.09375 
Q 40.234375 -1.421875 26.90625 -1.421875 
Q 22.3125 -1.421875 17.546875 -0.640625 
Q 12.796875 0.140625 7.71875 1.703125 
L 7.71875 11.625 
Q 12.109375 9.234375 16.796875 8.0625 
Q 21.484375 6.890625 26.703125 6.890625 
Q 35.15625 6.890625 40.078125 11.328125 
Q 45.015625 15.765625 45.015625 23.390625 
Q 45.015625 31 40.078125 35.4375 
Q 35.15625 39.890625 26.703125 39.890625 
Q 22.75 39.890625 18.8125 39.015625 
Q 14.890625 38.140625 10.796875 36.28125 
z
" id="DejaVuSans-53"/>
      </defs>
      <g style="fill:#555555;" transform="translate(314.408042 322.182437)scale(0.1 -0.1)">
       <use xlink:href="#DejaVuSans-53"/>
       <use x="63.623047" xlink:href="#DejaVuSans-48"/>
       <use x="127.246094" xlink:href="#DejaVuSans-48"/>
      </g>
     </g>
    </g>
    <g id="xtick_7">
     <g id="line2d_13">
      <path clip-path="url(#pf54addbd66)" d="M 373.975604 307.584 
L 373.975604 41.472 
" style="fill:none;stroke:#ffffff;stroke-linecap:square;stroke-width:0.8;"/>
     </g>
     <g id="line2d_14">
      <g>
       <use style="fill:#555555;stroke:#555555;stroke-width:0.8;" x="373.975604" xlink:href="#m620569b9b6" y="307.584"/>
      </g>
     </g>
     <g id="text_7">
      <!-- 600 -->
      <defs>
       <path d="M 33.015625 40.375 
Q 26.375 40.375 22.484375 35.828125 
Q 18.609375 31.296875 18.609375 23.390625 
Q 18.609375 15.53125 22.484375 10.953125 
Q 26.375 6.390625 33.015625 6.390625 
Q 39.65625 6.390625 43.53125 10.953125 
Q 47.40625 15.53125 47.40625 23.390625 
Q 47.40625 31.296875 43.53125 35.828125 
Q 39.65625 40.375 33.015625 40.375 
z
M 52.59375 71.296875 
L 52.59375 62.3125 
Q 48.875 64.0625 45.09375 64.984375 
Q 41.3125 65.921875 37.59375 65.921875 
Q 27.828125 65.921875 22.671875 59.328125 
Q 17.53125 52.734375 16.796875 39.40625 
Q 19.671875 43.65625 24.015625 45.921875 
Q 28.375 48.1875 33.59375 48.1875 
Q 44.578125 48.1875 50.953125 41.515625 
Q 57.328125 34.859375 57.328125 23.390625 
Q 57.328125 12.15625 50.6875 5.359375 
Q 44.046875 -1.421875 33.015625 -1.421875 
Q 20.359375 -1.421875 13.671875 8.265625 
Q 6.984375 17.96875 6.984375 36.375 
Q 6.984375 53.65625 15.1875 63.9375 
Q 23.390625 74.21875 37.203125 74.21875 
Q 40.921875 74.21875 44.703125 73.484375 
Q 48.484375 72.75 52.59375 71.296875 
z
" id="DejaVuSans-54"/>
      </defs>
      <g style="fill:#555555;" transform="translate(364.431854 322.182437)scale(0.1 -0.1)">
       <use xlink:href="#DejaVuSans-54"/>
       <use x="63.623047" xlink:href="#DejaVuSans-48"/>
       <use x="127.246094" xlink:href="#DejaVuSans-48"/>
      </g>
     </g>
    </g>
    <g id="text_8">
     <!-- Muestra -->
     <defs>
      <path d="M 9.8125 72.90625 
L 24.515625 72.90625 
L 43.109375 23.296875 
L 61.8125 72.90625 
L 76.515625 72.90625 
L 76.515625 0 
L 66.890625 0 
L 66.890625 64.015625 
L 48.09375 14.015625 
L 38.1875 14.015625 
L 19.390625 64.015625 
L 19.390625 0 
L 9.8125 0 
z
" id="DejaVuSans-77"/>
      <path d="M 8.5 21.578125 
L 8.5 54.6875 
L 17.484375 54.6875 
L 17.484375 21.921875 
Q 17.484375 14.15625 20.5 10.265625 
Q 23.53125 6.390625 29.59375 6.390625 
Q 36.859375 6.390625 41.078125 11.03125 
Q 45.3125 15.671875 45.3125 23.6875 
L 45.3125 54.6875 
L 54.296875 54.6875 
L 54.296875 0 
L 45.3125 0 
L 45.3125 8.40625 
Q 42.046875 3.421875 37.71875 1 
Q 33.40625 -1.421875 27.6875 -1.421875 
Q 18.265625 -1.421875 13.375 4.4375 
Q 8.5 10.296875 8.5 21.578125 
z
M 31.109375 56 
z
" id="DejaVuSans-117"/>
      <path d="M 56.203125 29.59375 
L 56.203125 25.203125 
L 14.890625 25.203125 
Q 15.484375 15.921875 20.484375 11.0625 
Q 25.484375 6.203125 34.421875 6.203125 
Q 39.59375 6.203125 44.453125 7.46875 
Q 49.3125 8.734375 54.109375 11.28125 
L 54.109375 2.78125 
Q 49.265625 0.734375 44.1875 -0.34375 
Q 39.109375 -1.421875 33.890625 -1.421875 
Q 20.796875 -1.421875 13.15625 6.1875 
Q 5.515625 13.8125 5.515625 26.8125 
Q 5.515625 40.234375 12.765625 48.109375 
Q 20.015625 56 32.328125 56 
Q 43.359375 56 49.78125 48.890625 
Q 56.203125 41.796875 56.203125 29.59375 
z
M 47.21875 32.234375 
Q 47.125 39.59375 43.09375 43.984375 
Q 39.0625 48.390625 32.421875 48.390625 
Q 24.90625 48.390625 20.390625 44.140625 
Q 15.875 39.890625 15.1875 32.171875 
z
" id="DejaVuSans-101"/>
      <path d="M 44.28125 53.078125 
L 44.28125 44.578125 
Q 40.484375 46.53125 36.375 47.5 
Q 32.28125 48.484375 27.875 48.484375 
Q 21.1875 48.484375 17.84375 46.4375 
Q 14.5 44.390625 14.5 40.28125 
Q 14.5 37.15625 16.890625 35.375 
Q 19.28125 33.59375 26.515625 31.984375 
L 29.59375 31.296875 
Q 39.15625 29.25 43.1875 25.515625 
Q 47.21875 21.78125 47.21875 15.09375 
Q 47.21875 7.46875 41.1875 3.015625 
Q 35.15625 -1.421875 24.609375 -1.421875 
Q 20.21875 -1.421875 15.453125 -0.5625 
Q 10.6875 0.296875 5.421875 2 
L 5.421875 11.28125 
Q 10.40625 8.6875 15.234375 7.390625 
Q 20.0625 6.109375 24.8125 6.109375 
Q 31.15625 6.109375 34.5625 8.28125 
Q 37.984375 10.453125 37.984375 14.40625 
Q 37.984375 18.0625 35.515625 20.015625 
Q 33.0625 21.96875 24.703125 23.78125 
L 21.578125 24.515625 
Q 13.234375 26.265625 9.515625 29.90625 
Q 5.8125 33.546875 5.8125 39.890625 
Q 5.8125 47.609375 11.28125 51.796875 
Q 16.75 56 26.8125 56 
Q 31.78125 56 36.171875 55.265625 
Q 40.578125 54.546875 44.28125 53.078125 
z
" id="DejaVuSans-115"/>
      <path d="M 18.3125 70.21875 
L 18.3125 54.6875 
L 36.8125 54.6875 
L 36.8125 47.703125 
L 18.3125 47.703125 
L 18.3125 18.015625 
Q 18.3125 11.328125 20.140625 9.421875 
Q 21.96875 7.515625 27.59375 7.515625 
L 36.8125 7.515625 
L 36.8125 0 
L 27.59375 0 
Q 17.1875 0 13.234375 3.875 
Q 9.28125 7.765625 9.28125 18.015625 
L 9.28125 47.703125 
L 2.6875 47.703125 
L 2.6875 54.6875 
L 9.28125 54.6875 
L 9.28125 70.21875 
z
" id="DejaVuSans-116"/>
      <path d="M 41.109375 46.296875 
Q 39.59375 47.171875 37.8125 47.578125 
Q 36.03125 48 33.890625 48 
Q 26.265625 48 22.1875 43.046875 
Q 18.109375 38.09375 18.109375 28.8125 
L 18.109375 0 
L 9.078125 0 
L 9.078125 54.6875 
L 18.109375 54.6875 
L 18.109375 46.1875 
Q 20.953125 51.171875 25.484375 53.578125 
Q 30.03125 56 36.53125 56 
Q 37.453125 56 38.578125 55.875 
Q 39.703125 55.765625 41.0625 55.515625 
z
" id="DejaVuSans-114"/>
      <path d="M 34.28125 27.484375 
Q 23.390625 27.484375 19.1875 25 
Q 14.984375 22.515625 14.984375 16.5 
Q 14.984375 11.71875 18.140625 8.90625 
Q 21.296875 6.109375 26.703125 6.109375 
Q 34.1875 6.109375 38.703125 11.40625 
Q 43.21875 16.703125 43.21875 25.484375 
L 43.21875 27.484375 
z
M 52.203125 31.203125 
L 52.203125 0 
L 43.21875 0 
L 43.21875 8.296875 
Q 40.140625 3.328125 35.546875 0.953125 
Q 30.953125 -1.421875 24.3125 -1.421875 
Q 15.921875 -1.421875 10.953125 3.296875 
Q 6 8.015625 6 15.921875 
Q 6 25.140625 12.171875 29.828125 
Q 18.359375 34.515625 30.609375 34.515625 
L 43.21875 34.515625 
L 43.21875 35.40625 
Q 43.21875 41.609375 39.140625 45 
Q 35.0625 48.390625 27.6875 48.390625 
Q 23 48.390625 18.546875 47.265625 
Q 14.109375 46.140625 10.015625 43.890625 
L 10.015625 52.203125 
Q 14.9375 54.109375 19.578125 55.046875 
Q 24.21875 56 28.609375 56 
Q 40.484375 56 46.34375 49.84375 
Q 52.203125 43.703125 52.203125 31.203125 
z
" id="DejaVuSans-97"/>
     </defs>
     <g style="fill:#555555;" transform="translate(211.8675 337.38025)scale(0.12 -0.12)">
      <use xlink:href="#DejaVuSans-77"/>
      <use x="86.279297" xlink:href="#DejaVuSans-117"/>
      <use x="149.658203" xlink:href="#DejaVuSans-101"/>
      <use x="211.181641" xlink:href="#DejaVuSans-115"/>
      <use x="263.28125" xlink:href="#DejaVuSans-116"/>
      <use x="302.490234" xlink:href="#DejaVuSans-114"/>
      <use x="343.603516" xlink:href="#DejaVuSans-97"/>
     </g>
    </g>
   </g>
   <g id="matplotlib.axis_2">
    <g id="ytick_1">
     <g id="line2d_15">
      <path clip-path="url(#pf54addbd66)" d="M 57.6 295.488 
L 414.72 295.488 
" style="fill:none;stroke:#ffffff;stroke-linecap:square;stroke-width:0.8;"/>
     </g>
     <g id="line2d_16">
      <defs>
       <path d="M 0 0 
L -3.5 0 
" id="mf4a8839633" style="stroke:#555555;stroke-width:0.8;"/>
      </defs>
      <g>
       <use style="fill:#555555;stroke:#555555;stroke-width:0.8;" x="57.6" xlink:href="#mf4a8839633" y="295.488"/>
      </g>
     </g>
     <g id="text_9">
      <!-- 0 -->
      <g style="fill:#555555;" transform="translate(44.2375 299.287219)scale(0.1 -0.1)">
       <use xlink:href="#DejaVuSans-48"/>
      </g>
     </g>
    </g>
    <g id="ytick_2">
     <g id="line2d_17">
      <path clip-path="url(#pf54addbd66)" d="M 57.6 256.176897 
L 414.72 256.176897 
" style="fill:none;stroke:#ffffff;stroke-linecap:square;stroke-width:0.8;"/>
     </g>
     <g id="line2d_18">
      <g>
       <use style="fill:#555555;stroke:#555555;stroke-width:0.8;" x="57.6" xlink:href="#mf4a8839633" y="256.176897"/>
      </g>
     </g>
     <g id="text_10">
      <!-- 50 -->
      <g style="fill:#555555;" transform="translate(37.875 259.976116)scale(0.1 -0.1)">
       <use xlink:href="#DejaVuSans-53"/>
       <use x="63.623047" xlink:href="#DejaVuSans-48"/>
      </g>
     </g>
    </g>
    <g id="ytick_3">
     <g id="line2d_19">
      <path clip-path="url(#pf54addbd66)" d="M 57.6 216.865794 
L 414.72 216.865794 
" style="fill:none;stroke:#ffffff;stroke-linecap:square;stroke-width:0.8;"/>
     </g>
     <g id="line2d_20">
      <g>
       <use style="fill:#555555;stroke:#555555;stroke-width:0.8;" x="57.6" xlink:href="#mf4a8839633" y="216.865794"/>
      </g>
     </g>
     <g id="text_11">
      <!-- 100 -->
      <g style="fill:#555555;" transform="translate(31.5125 220.665013)scale(0.1 -0.1)">
       <use xlink:href="#DejaVuSans-49"/>
       <use x="63.623047" xlink:href="#DejaVuSans-48"/>
       <use x="127.246094" xlink:href="#DejaVuSans-48"/>
      </g>
     </g>
    </g>
    <g id="ytick_4">
     <g id="line2d_21">
      <path clip-path="url(#pf54addbd66)" d="M 57.6 177.554692 
L 414.72 177.554692 
" style="fill:none;stroke:#ffffff;stroke-linecap:square;stroke-width:0.8;"/>
     </g>
     <g id="line2d_22">
      <g>
       <use style="fill:#555555;stroke:#555555;stroke-width:0.8;" x="57.6" xlink:href="#mf4a8839633" y="177.554692"/>
      </g>
     </g>
     <g id="text_12">
      <!-- 150 -->
      <g style="fill:#555555;" transform="translate(31.5125 181.35391)scale(0.1 -0.1)">
       <use xlink:href="#DejaVuSans-49"/>
       <use x="63.623047" xlink:href="#DejaVuSans-53"/>
       <use x="127.246094" xlink:href="#DejaVuSans-48"/>
      </g>
     </g>
    </g>
    <g id="ytick_5">
     <g id="line2d_23">
      <path clip-path="url(#pf54addbd66)" d="M 57.6 138.243589 
L 414.72 138.243589 
" style="fill:none;stroke:#ffffff;stroke-linecap:square;stroke-width:0.8;"/>
     </g>
     <g id="line2d_24">
      <g>
       <use style="fill:#555555;stroke:#555555;stroke-width:0.8;" x="57.6" xlink:href="#mf4a8839633" y="138.243589"/>
      </g>
     </g>
     <g id="text_13">
      <!-- 200 -->
      <g style="fill:#555555;" transform="translate(31.5125 142.042808)scale(0.1 -0.1)">
       <use xlink:href="#DejaVuSans-50"/>
       <use x="63.623047" xlink:href="#DejaVuSans-48"/>
       <use x="127.246094" xlink:href="#DejaVuSans-48"/>
      </g>
     </g>
    </g>
    <g id="ytick_6">
     <g id="line2d_25">
      <path clip-path="url(#pf54addbd66)" d="M 57.6 98.932486 
L 414.72 98.932486 
" style="fill:none;stroke:#ffffff;stroke-linecap:square;stroke-width:0.8;"/>
     </g>
     <g id="line2d_26">
      <g>
       <use style="fill:#555555;stroke:#555555;stroke-width:0.8;" x="57.6" xlink:href="#mf4a8839633" y="98.932486"/>
      </g>
     </g>
     <g id="text_14">
      <!-- 250 -->
      <g style="fill:#555555;" transform="translate(31.5125 102.731705)scale(0.1 -0.1)">
       <use xlink:href="#DejaVuSans-50"/>
       <use x="63.623047" xlink:href="#DejaVuSans-53"/>
       <use x="127.246094" xlink:href="#DejaVuSans-48"/>
      </g>
     </g>
    </g>
    <g id="ytick_7">
     <g id="line2d_27">
      <path clip-path="url(#pf54addbd66)" d="M 57.6 59.621383 
L 414.72 59.621383 
" style="fill:none;stroke:#ffffff;stroke-linecap:square;stroke-width:0.8;"/>
     </g>
     <g id="line2d_28">
      <g>
       <use style="fill:#555555;stroke:#555555;stroke-width:0.8;" x="57.6" xlink:href="#mf4a8839633" y="59.621383"/>
      </g>
     </g>
     <g id="text_15">
      <!-- 300 -->
      <g style="fill:#555555;" transform="translate(31.5125 63.420602)scale(0.1 -0.1)">
       <use xlink:href="#DejaVuSans-51"/>
       <use x="63.623047" xlink:href="#DejaVuSans-48"/>
       <use x="127.246094" xlink:href="#DejaVuSans-48"/>
      </g>
     </g>
    </g>
    <g id="text_16">
     <!-- Voltaje -->
     <defs>
      <path d="M 28.609375 0 
L 0.78125 72.90625 
L 11.078125 72.90625 
L 34.1875 11.53125 
L 57.328125 72.90625 
L 67.578125 72.90625 
L 39.796875 0 
z
" id="DejaVuSans-86"/>
      <path d="M 30.609375 48.390625 
Q 23.390625 48.390625 19.1875 42.75 
Q 14.984375 37.109375 14.984375 27.296875 
Q 14.984375 17.484375 19.15625 11.84375 
Q 23.34375 6.203125 30.609375 6.203125 
Q 37.796875 6.203125 41.984375 11.859375 
Q 46.1875 17.53125 46.1875 27.296875 
Q 46.1875 37.015625 41.984375 42.703125 
Q 37.796875 48.390625 30.609375 48.390625 
z
M 30.609375 56 
Q 42.328125 56 49.015625 48.375 
Q 55.71875 40.765625 55.71875 27.296875 
Q 55.71875 13.875 49.015625 6.21875 
Q 42.328125 -1.421875 30.609375 -1.421875 
Q 18.84375 -1.421875 12.171875 6.21875 
Q 5.515625 13.875 5.515625 27.296875 
Q 5.515625 40.765625 12.171875 48.375 
Q 18.84375 56 30.609375 56 
z
" id="DejaVuSans-111"/>
      <path d="M 9.421875 75.984375 
L 18.40625 75.984375 
L 18.40625 0 
L 9.421875 0 
z
" id="DejaVuSans-108"/>
      <path d="M 9.421875 54.6875 
L 18.40625 54.6875 
L 18.40625 -0.984375 
Q 18.40625 -11.421875 14.421875 -16.109375 
Q 10.453125 -20.796875 1.609375 -20.796875 
L -1.8125 -20.796875 
L -1.8125 -13.1875 
L 0.59375 -13.1875 
Q 5.71875 -13.1875 7.5625 -10.8125 
Q 9.421875 -8.453125 9.421875 -0.984375 
z
M 9.421875 75.984375 
L 18.40625 75.984375 
L 18.40625 64.59375 
L 9.421875 64.59375 
z
" id="DejaVuSans-106"/>
     </defs>
     <g style="fill:#555555;" transform="translate(25.016875 195.35175)rotate(-90)scale(0.12 -0.12)">
      <use xlink:href="#DejaVuSans-86"/>
      <use x="68.298828" xlink:href="#DejaVuSans-111"/>
      <use x="129.480469" xlink:href="#DejaVuSans-108"/>
      <use x="157.263672" xlink:href="#DejaVuSans-116"/>
      <use x="196.472656" xlink:href="#DejaVuSans-97"/>
      <use x="257.751953" xlink:href="#DejaVuSans-106"/>
      <use x="285.535156" xlink:href="#DejaVuSans-101"/>
     </g>
    </g>
   </g>
   <g id="line2d_29">
    <path clip-path="url(#pf54addbd66)" d="M 73.832727 249.116392 
L 77.334394 259.511008 
L 78.835109 263.113251 
L 80.335823 265.786324 
L 81.336299 267.306298 
L 82.336775 268.468899 
L 83.337252 269.560024 
L 84.837966 270.732127 
L 86.33868 271.761281 
L 87.839395 272.57601 
L 90.340586 273.624169 
L 92.841776 274.457903 
L 93.342014 274.824779 
L 93.842252 275.048705 
L 94.342491 275.129683 
L 95.843205 275.729988 
L 97.844157 276.268321 
L 98.344396 276.349298 
L 98.844634 276.215851 
L 104.847491 277.259051 
L 107.348682 277.949836 
L 108.849396 278.264242 
L 110.350111 278.936022 
L 112.351063 278.974032 
L 113.351539 279.35041 
L 115.352492 279.602844 
L 116.352968 279.693324 
L 118.353921 280.231656 
L 121.355349 280.788994 
L 122.355826 281.093898 
L 123.356302 281.184377 
L 123.85654 281.265355 
L 124.857016 281.641733 
L 125.857493 281.732213 
L 126.357731 281.81319 
L 127.358207 281.76072 
L 128.358683 281.851199 
L 129.35916 282.084629 
L 130.359636 282.103633 
L 133.361065 282.94687 
L 134.861779 283.118327 
L 135.362017 283.127829 
L 137.36297 283.666162 
L 139.363922 284.061545 
L 144.366303 285.657539 
L 145.36678 286.033917 
L 146.867494 286.419798 
L 149.868923 286.977136 
L 154.871304 288.501655 
L 157.872733 288.487195 
L 158.873209 288.434725 
L 160.874162 288.40126 
L 161.874638 288.34879 
L 163.375352 288.663196 
L 164.876067 289.120552 
L 165.376305 289.130054 
L 168.377734 290.402139 
L 170.878924 291.164398 
L 171.379162 291.173901 
L 171.8794 290.897504 
L 172.379639 291.049956 
L 174.380591 291.016491 
L 175.381067 290.964021 
L 176.881782 290.992529 
L 177.38202 291.14498 
L 179.883211 291.263967 
L 181.884163 291.587876 
L 182.384401 291.525904 
L 184.385354 292.135711 
L 187.386782 292.2642 
L 187.887021 292.488127 
L 190.388211 292.607114 
L 191.388687 292.840543 
L 194.890354 293.335908 
L 196.391069 293.43589 
L 197.891783 293.607347 
L 200.893212 293.592887 
L 203.394403 293.3545 
L 207.896546 293.511496 
L 209.897498 293.835405 
L 210.397736 294.059332 
L 212.398689 294.454715 
L 213.399165 294.688144 
L 215.400118 294.940578 
L 215.900356 294.878606 
L 216.400594 295.102532 
L 217.40107 295.193012 
L 218.901785 295.292994 
L 220.402499 295.488 
L 225.40488 295.488 
L 227.405833 294.882737 
L 229.406785 293.705676 
L 230.407262 293.009934 
L 231.407738 292.242717 
L 235.409643 288.173202 
L 236.910357 286.55779 
L 237.910833 285.647623 
L 238.91131 284.594507 
L 241.4125 282.354828 
L 242.913215 280.95384 
L 244.413929 279.838752 
L 246.414882 278.304318 
L 251.417263 274.825605 
L 255.419168 273.257706 
L 256.919882 273.357688 
L 257.920359 273.591117 
L 258.920835 273.89602 
L 259.921311 274.415348 
L 264.423454 276.430688 
L 265.423931 276.664117 
L 265.924169 276.816569 
L 266.424407 277.11197 
L 269.425836 277.597833 
L 269.926074 277.893235 
L 270.92655 278.269613 
L 274.928455 279.989551 
L 275.428693 280.070528 
L 275.928931 280.294455 
L 276.929407 280.527884 
L 277.429646 280.680336 
L 277.929884 280.975737 
L 279.430598 281.433093 
L 279.930836 281.442595 
L 282.932265 282.357307 
L 283.932741 282.447786 
L 288.434884 283.891328 
L 288.935123 284.186729 
L 289.935599 284.563108 
L 291.936551 285.38734 
L 292.937028 285.620769 
L 294.437742 285.506326 
L 294.93798 285.658778 
L 295.938456 285.749258 
L 298.939885 286.306596 
L 300.940838 286.844928 
L 301.941314 287.006883 
L 302.441552 286.94491 
L 304.942743 287.349796 
L 306.443457 287.163879 
L 306.943695 287.244856 
L 308.44441 287.130414 
L 310.445362 287.239899 
L 310.9456 287.39235 
L 312.446315 287.420858 
L 313.446791 287.797236 
L 314.447267 288.173615 
L 314.947505 288.326067 
L 315.447743 288.335569 
L 319.449648 289.483709 
L 320.950363 289.583691 
L 321.950839 289.674171 
L 323.951792 289.640706 
L 324.45203 289.507259 
L 325.452506 289.597738 
L 326.95322 289.69772 
L 328.453935 289.940652 
L 328.954173 289.87868 
L 331.455363 290.212091 
L 332.956078 290.312073 
L 336.957983 291.031365 
L 337.958459 291.336268 
L 338.958935 291.426748 
L 345.462031 292.550926 
L 346.462507 292.784355 
L 347.963222 293.027286 
L 348.46346 293.251213 
L 350.464412 293.360697 
L 350.964651 293.441674 
L 351.965127 293.389204 
L 356.46727 293.546201 
L 357.967984 293.789132 
L 360.469175 293.550746 
L 364.971318 293.707742 
L 365.971794 293.798222 
L 366.972271 293.888701 
L 369.973699 294.303089 
L 370.974176 294.322094 
L 371.974652 294.555523 
L 372.47489 294.6365 
L 372.975128 294.574528 
L 373.975604 294.665008 
L 375.476319 294.76499 
L 376.977033 294.936446 
L 377.977509 295.026926 
L 378.977986 295.117406 
L 380.978938 295.155415 
L 381.479176 295.021968 
L 381.979414 295.031471 
L 382.979891 295.2649 
L 383.480129 295.202927 
L 384.980843 295.374384 
L 388.982748 295.378929 
L 389.482986 295.316956 
L 389.983225 295.397934 
L 390.483463 295.335961 
L 391.984177 295.488 
L 398.487273 295.488 
L 398.487273 295.488 
" style="fill:none;stroke:#e24a33;stroke-linecap:square;stroke-width:1.5;"/>
   </g>
   <g id="line2d_30">
    <path clip-path="url(#pf54addbd66)" d="M 73.832727 259.150036 
L 76.834156 268.506499 
L 78.33487 272.166215 
L 78.835109 273.314646 
L 80.335823 275.759292 
L 81.336299 277.055507 
L 83.337252 278.933191 
L 83.83749 279.295399 
L 84.337728 279.514659 
L 84.837966 279.876867 
L 86.838919 280.68243 
L 90.840824 281.793231 
L 91.341062 281.869541 
L 92.841776 282.455844 
L 95.342967 283.123292 
L 96.343443 283.204437 
L 96.843681 283.352221 
L 98.844634 283.443036 
L 100.345348 283.600491 
L 100.845586 283.605326 
L 101.846062 283.82942 
L 102.846539 283.910565 
L 103.847015 284.063184 
L 104.347253 283.996545 
L 113.851778 285.517906 
L 114.352016 285.66569 
L 115.352492 285.746835 
L 116.352968 285.82798 
L 117.853683 285.91396 
L 124.857016 286.910822 
L 125.357255 286.772707 
L 125.857493 286.777543 
L 126.357731 286.925327 
L 126.857969 286.930162 
L 127.358207 287.077947 
L 130.359636 287.178432 
L 131.360112 287.402526 
L 132.360588 287.340721 
L 133.361065 287.421866 
L 134.861779 287.72227 
L 135.862255 288.017839 
L 136.862731 288.098984 
L 143.866065 289.238796 
L 145.36678 289.753624 
L 145.867018 289.686985 
L 146.367256 289.834769 
L 147.367732 289.915914 
L 150.369161 290.445247 
L 152.870352 291.112695 
L 154.371066 291.413099 
L 154.871304 291.274985 
L 155.87178 291.35613 
L 157.372495 291.227686 
L 160.874162 291.333006 
L 167.877495 292.472817 
L 168.877972 292.696912 
L 169.878448 292.778057 
L 170.878924 293.002151 
L 172.879877 293.092966 
L 173.880353 293.174111 
L 177.882258 293.284266 
L 178.382496 293.43205 
L 182.384401 293.542206 
L 182.884639 293.68999 
L 185.886068 293.790475 
L 186.386306 294.009734 
L 187.887021 294.167189 
L 188.887497 294.105384 
L 189.387735 294.253169 
L 191.388687 294.272509 
L 191.888926 294.134395 
L 192.889402 294.21554 
L 194.890354 294.449304 
L 195.390593 294.454139 
L 195.890831 294.601924 
L 196.891307 294.611594 
L 197.391545 294.759378 
L 197.891783 294.764213 
L 198.392021 294.626099 
L 202.393926 294.593305 
L 203.394403 294.5315 
L 203.894641 294.679284 
L 206.896069 294.779769 
L 208.897022 295.013534 
L 210.397736 295.099514 
L 210.897975 295.175824 
L 211.898451 295.114019 
L 214.89988 295.214504 
L 215.900356 295.438598 
L 217.40107 295.488 
L 229.406785 295.488 
L 229.907023 295.359556 
L 230.407262 295.435865 
L 231.407738 295.231111 
L 233.40869 294.750128 
L 233.908928 294.683489 
L 234.909405 294.335785 
L 238.411072 293.29751 
L 239.411548 292.949806 
L 245.414405 292.15013 
L 247.915596 291.173659 
L 248.916072 290.825955 
L 250.917025 290.059074 
L 251.917501 289.85432 
L 255.919406 289.392677 
L 257.42012 289.550132 
L 259.421073 289.640946 
L 261.422025 290.16061 
L 261.922264 290.09397 
L 262.422502 290.17028 
L 263.923216 290.041836 
L 265.423931 289.984866 
L 266.924645 289.784947 
L 267.424883 289.861257 
L 268.425359 289.799452 
L 269.425836 289.880597 
L 269.926074 289.813957 
L 274.928455 290.64853 
L 275.928931 290.872624 
L 276.929407 290.953769 
L 278.430122 291.325648 
L 282.932265 291.297689 
L 283.432503 291.231049 
L 284.933218 291.388504 
L 286.93417 291.479319 
L 289.435361 292.146766 
L 289.935599 292.151602 
L 292.436789 292.819049 
L 293.937504 292.476181 
L 295.938456 292.424046 
L 297.439171 292.081178 
L 298.439647 292.162323 
L 299.940361 292.319777 
L 302.441552 292.415427 
L 302.94179 292.491737 
L 309.444886 291.696896 
L 310.9456 291.639927 
L 311.445838 291.573287 
L 311.946076 291.721071 
L 312.946553 291.802216 
L 313.947029 292.026311 
L 317.948934 292.565314 
L 318.449172 292.570149 
L 318.94941 292.432035 
L 319.449648 292.508345 
L 323.951792 291.908587 
L 324.45203 291.984897 
L 325.952744 291.784978 
L 329.454411 292.319147 
L 329.954649 292.252507 
L 331.455363 292.552911 
L 331.955602 292.414797 
L 334.456792 292.510447 
L 335.457269 292.663066 
L 336.457745 292.601262 
L 336.957983 292.606097 
L 337.958459 292.830191 
L 338.458697 292.835026 
L 338.958935 292.982811 
L 339.459174 292.844696 
L 340.959888 292.859201 
L 341.460126 293.006986 
L 345.462031 293.117141 
L 345.962269 293.3364 
L 347.963222 293.570165 
L 348.963698 293.65131 
L 350.464412 293.808764 
L 350.964651 293.813599 
L 351.464889 293.675485 
L 355.466794 293.78564 
L 357.967984 294.095714 
L 360.969413 294.05325 
L 361.469651 293.915135 
L 362.470127 293.99628 
L 365.971794 294.530449 
L 366.472032 294.392334 
L 367.972747 294.549789 
L 369.473461 294.635769 
L 371.474414 294.869533 
L 371.974652 295.160267 
L 373.975604 295.251082 
L 375.976557 295.488 
L 398.487273 295.488 
L 398.487273 295.488 
" style="fill:none;stroke:#348abd;stroke-linecap:square;stroke-width:1.5;"/>
   </g>
   <g id="line2d_31">
    <path clip-path="url(#pf54addbd66)" d="M 73.832727 288.596645 
L 76.333918 289.979398 
L 76.834156 290.413193 
L 77.834632 290.78046 
L 79.335347 291.438573 
L 81.336299 291.815733 
L 81.836537 291.963629 
L 82.336775 291.968576 
L 82.837014 292.187947 
L 83.83749 292.269315 
L 85.338204 292.427105 
L 85.838442 292.432051 
L 86.838919 292.727844 
L 88.339633 292.742684 
L 89.340109 292.967001 
L 91.8413 293.06321 
L 93.342014 293.220999 
L 95.342967 293.026362 
L 101.345824 293.157197 
L 101.846062 293.233618 
L 103.346777 293.105509 
L 105.847968 293.487616 
L 106.848444 293.426035 
L 107.348682 293.430981 
L 108.349158 293.655299 
L 109.349634 293.736667 
L 110.850349 293.608558 
L 111.850825 293.832875 
L 112.851301 293.914244 
L 113.851778 293.852662 
L 116.853206 293.810868 
L 117.853683 293.749286 
L 120.855111 293.707492 
L 121.355349 293.569489 
L 126.357731 293.690431 
L 126.857969 293.838327 
L 128.358683 293.924642 
L 129.35916 294.00601 
L 129.859398 294.010956 
L 130.359636 293.872954 
L 134.361541 293.841053 
L 134.861779 294.060423 
L 139.86416 294.10989 
L 140.364398 293.900413 
L 142.865589 293.996621 
L 143.866065 294.220939 
L 147.86797 294.760835 
L 150.869399 294.719041 
L 151.869875 294.65746 
L 152.370113 294.733881 
L 154.871304 294.472716 
L 156.372018 294.487556 
L 156.872257 294.635452 
L 158.372971 294.721767 
L 159.373447 294.803135 
L 159.873685 294.808081 
L 160.373924 294.670079 
L 161.3744 294.751447 
L 162.374876 294.689865 
L 164.375829 294.781127 
L 167.377257 295.239656 
L 168.377734 295.178074 
L 169.37821 295.259442 
L 171.8794 295.212701 
L 172.879877 295.15112 
L 178.382496 295.277008 
L 179.382972 295.358376 
L 180.383449 295.296795 
L 181.383925 295.378163 
L 186.386306 295.356155 
L 187.386782 295.294574 
L 200.392974 295.423188 
L 201.39345 295.218657 
L 205.395355 295.258231 
L 205.895593 294.977279 
L 208.396784 295.287911 
L 208.897022 295.149908 
L 209.39726 295.154855 
L 209.897498 295.302751 
L 210.897975 295.24117 
L 211.398213 295.488 
L 221.903213 295.421472 
L 223.403928 295.150413 
L 224.404404 294.945882 
L 228.906547 294.418605 
L 229.907023 294.499973 
L 231.407738 294.443338 
L 231.907976 294.37681 
L 232.908452 294.529653 
L 233.908928 294.468072 
L 234.909405 294.40649 
L 235.909881 294.344909 
L 237.910833 294.293221 
L 238.411072 294.155218 
L 239.911786 294.313008 
L 242.412977 294.051842 
L 246.91512 294.167837 
L 247.915596 294.249206 
L 248.916072 294.187624 
L 249.916549 294.197518 
L 250.917025 293.921512 
L 252.417739 294.150776 
L 253.418215 294.089195 
L 254.418692 294.170563 
L 254.91893 294.104035 
L 256.419644 294.476249 
L 257.920359 294.491089 
L 258.920835 294.715407 
L 260.421549 294.944671 
L 261.922264 294.816562 
L 262.92274 294.969404 
L 264.923692 294.774767 
L 270.92655 294.834127 
L 272.427264 295.420765 
L 273.427741 295.488 
L 398.487273 295.488 
L 398.487273 295.488 
" style="fill:none;stroke:#988ed5;stroke-linecap:square;stroke-width:1.5;"/>
   </g>
   <g id="line2d_32">
    <path clip-path="url(#pf54addbd66)" d="M 73.832727 81.930004 
L 77.834632 113.933068 
L 79.335347 124.370708 
L 81.336299 136.048019 
L 83.83749 148.607628 
L 86.33868 159.165944 
L 88.339633 166.268872 
L 89.840347 171.131482 
L 92.341538 178.473436 
L 94.842729 185.52949 
L 96.843681 190.559651 
L 98.844634 195.089489 
L 102.846539 203.077043 
L 104.847491 206.463285 
L 106.848444 210.206901 
L 107.84892 211.757072 
L 111.350587 217.718733 
L 112.851301 220.079728 
L 115.352492 223.990894 
L 116.352968 225.398116 
L 121.855588 232.101454 
L 123.85654 234.629999 
L 125.857493 236.872645 
L 128.358683 239.354317 
L 130.859874 241.764514 
L 133.361065 244.532084 
L 135.862255 247.442604 
L 137.863208 249.399351 
L 139.363922 250.831174 
L 140.364398 251.881023 
L 141.364875 253.002346 
L 142.365351 254.266619 
L 143.866065 255.984341 
L 145.36678 257.630588 
L 148.868447 259.804088 
L 151.369637 261.928386 
L 154.371066 264.220234 
L 154.871304 264.387785 
L 155.87178 265.008785 
L 156.372018 265.176335 
L 157.872733 266.036361 
L 158.372971 266.132437 
L 159.873685 266.920987 
L 161.874638 268.234462 
L 163.375352 269.380386 
L 165.376305 271.337133 
L 166.877019 272.626007 
L 167.877495 273.175532 
L 168.377734 273.557507 
L 171.379162 274.491336 
L 172.379639 274.612012 
L 172.879877 274.922513 
L 174.880829 275.664189 
L 176.381544 276.30979 
L 177.38202 276.716366 
L 177.882258 276.955392 
L 178.882734 277.219018 
L 179.382972 277.458043 
L 179.883211 277.554119 
L 183.384877 279.155821 
L 184.885592 279.729948 
L 185.886068 280.207998 
L 186.386306 280.232599 
L 191.888926 282.861877 
L 192.889402 283.125504 
L 194.890354 284.153079 
L 195.890831 284.702605 
L 198.392021 285.897731 
L 198.892259 285.993807 
L 199.392498 286.232832 
L 201.39345 286.68861 
L 203.394403 287.573236 
L 203.894641 287.740787 
L 204.394879 288.051287 
L 205.395355 288.314913 
L 206.395831 288.864439 
L 207.396308 289.271014 
L 208.897022 289.845141 
L 211.898451 291.207818 
L 212.898927 291.614393 
L 213.899403 292.163919 
L 214.399641 292.545893 
L 216.400594 293.28757 
L 219.402023 294.650247 
L 219.902261 294.746323 
L 220.902737 295.152899 
L 221.903213 295.488 
L 222.90369 295.465727 
L 223.403928 294.704106 
L 223.904166 293.370688 
L 224.404404 290.965148 
L 224.904642 287.558962 
L 225.40488 282.794756 
L 226.405356 269.549658 
L 227.405833 251.229854 
L 228.906547 215.995139 
L 231.407738 155.150198 
L 232.908452 125.490512 
L 233.908928 109.672324 
L 234.909405 96.570175 
L 235.909881 86.112592 
L 236.910357 77.9422 
L 237.910833 71.844575 
L 238.91131 67.033495 
L 239.911786 63.437486 
L 240.912262 60.842123 
L 241.4125 59.794603 
L 243.413453 56.891069 
L 244.413929 56.011099 
L 244.914167 55.892751 
L 245.914644 55.298681 
L 247.915596 54.324964 
L 251.417263 53.568 
L 252.417739 53.688677 
L 252.917977 53.999177 
L 253.418215 54.595576 
L 254.418692 57.360818 
L 254.91893 59.386711 
L 255.919406 64.867993 
L 256.919882 72.064669 
L 258.420597 85.289823 
L 260.421549 102.613637 
L 261.922264 114.123398 
L 263.422978 124.132189 
L 265.423931 135.8095 
L 266.924645 143.38815 
L 269.425836 154.446789 
L 270.92655 160.381521 
L 275.428693 176.327371 
L 278.430122 185.552269 
L 281.931789 194.944717 
L 284.432979 200.857175 
L 290.435837 214.661113 
L 292.436789 218.833577 
L 294.437742 222.148344 
L 301.941314 233.095621 
L 303.442028 234.956292 
L 304.442505 236.077615 
L 304.942743 236.45959 
L 305.943219 237.509438 
L 310.9456 242.115408 
L 315.947982 248.222347 
L 316.948458 249.415145 
L 319.449648 252.182715 
L 320.450125 253.232563 
L 321.450601 254.139462 
L 321.950839 254.449962 
L 322.951315 255.285387 
L 324.45203 256.216887 
L 324.952268 256.670336 
L 325.452506 256.909361 
L 333.956554 263.402932 
L 334.95703 264.309831 
L 338.958935 267.794477 
L 340.45965 268.868927 
L 344.461555 271.424401 
L 346.462507 272.880826 
L 349.964174 274.982851 
L 353.465841 276.656028 
L 354.466317 276.919654 
L 354.966556 277.087205 
L 356.46727 277.94723 
L 358.468222 278.974806 
L 358.968461 278.927932 
L 361.469651 280.051584 
L 362.970366 280.62571 
L 363.970842 281.103761 
L 364.971318 281.86771 
L 367.472509 283.134311 
L 371.974652 285.857337 
L 373.475366 286.645887 
L 374.976081 287.505912 
L 376.476795 288.080039 
L 376.977033 288.319064 
L 377.477271 288.41514 
L 378.477748 288.821716 
L 379.478224 289.085342 
L 381.979414 289.637196 
L 384.980843 290.713974 
L 389.482986 292.793727 
L 390.483463 293.200302 
L 391.483939 293.606878 
L 395.485844 294.947283 
L 396.48632 295.075107 
L 398.487273 295.488 
L 398.487273 295.488 
" style="fill:none;stroke:#777777;stroke-linecap:square;stroke-width:1.5;"/>
   </g>
   <g id="line2d_33">
    <path clip-path="url(#pf54addbd66)" d="M 73.832727 256.731081 
L 76.333918 243.593577 
L 76.834156 241.873806 
L 77.834632 236.504444 
L 78.835109 237.996658 
L 79.335347 238.921451 
L 79.835585 240.346568 
L 80.335823 241.414311 
L 82.837014 249.040216 
L 84.337728 254.673586 
L 85.838442 257.590916 
L 86.838919 258.654281 
L 87.339157 258.364004 
L 87.839395 258.788474 
L 88.339633 258.355248 
L 88.839871 258.565294 
L 89.840347 257.484416 
L 90.840824 257.547135 
L 91.341062 257.757181 
L 92.341538 258.749071 
L 92.841776 260.245663 
L 93.342014 260.884557 
L 93.842252 262.452623 
L 94.342491 263.020043 
L 94.842729 264.373685 
L 95.843205 265.079676 
L 96.343443 265.575621 
L 96.843681 264.856495 
L 97.343919 265.566865 
L 97.844157 265.205113 
L 98.344396 265.772533 
L 98.844634 266.054054 
L 99.344872 265.978201 
L 99.84511 266.83152 
L 100.345348 265.75502 
L 100.845586 266.751289 
L 101.846062 267.242856 
L 102.346301 269.025346 
L 102.846539 269.521291 
L 103.346777 270.303135 
L 103.847015 270.584656 
L 104.347253 269.722581 
L 104.847491 270.004102 
L 105.347729 269.284976 
L 105.847968 269.566497 
L 106.348206 270.205392 
L 106.848444 270.415438 
L 107.348682 271.697605 
L 107.84892 271.478803 
L 108.849396 272.327743 
L 109.349634 271.465668 
L 109.849873 272.747835 
L 110.850349 272.238756 
L 111.350587 273.592398 
L 111.850825 273.44507 
L 112.351063 274.441339 
L 113.851778 275.214426 
L 114.352016 274.280877 
L 114.852254 274.705347 
L 115.352492 274.41507 
L 115.85273 274.625116 
L 116.352968 276.264657 
L 116.853206 276.331754 
L 117.353444 277.185072 
L 117.853683 277.538068 
L 118.353921 276.961892 
L 118.854159 277.386362 
L 119.354397 276.524287 
L 119.854635 277.234657 
L 120.354873 277.587652 
L 120.855111 277.011476 
L 121.355349 277.864795 
L 121.855588 277.14567 
L 122.355826 277.784564 
L 123.356302 277.632858 
L 123.85654 278.271753 
L 124.356778 278.553274 
L 124.857016 279.97839 
L 125.357255 280.760234 
L 126.357731 282.824245 
L 126.857969 283.248716 
L 127.358207 283.172863 
L 127.858445 283.23996 
L 128.358683 282.234935 
L 128.858921 282.016133 
L 129.35916 281.439957 
L 129.859398 280.506407 
L 130.359636 279.858757 
L 130.859874 278.853732 
L 131.86035 278.487603 
L 132.360588 278.554699 
L 133.361065 279.26069 
L 135.862255 283.455809 
L 136.362493 284.737976 
L 136.862731 285.233921 
L 137.36297 286.08724 
L 138.363446 286.435858 
L 138.863684 286.431479 
L 140.364398 285.1318 
L 140.864637 284.19825 
L 141.364875 283.907973 
L 141.865113 283.045899 
L 142.365351 282.827096 
L 142.865589 282.25092 
L 143.365827 282.460966 
L 144.366303 283.238432 
L 144.866542 284.37765 
L 145.36678 285.016544 
L 146.867494 288.148298 
L 147.367732 288.930142 
L 147.86797 289.283138 
L 149.368685 288.698206 
L 149.868923 287.335808 
L 150.369161 287.259955 
L 150.869399 286.39788 
L 151.369637 286.679401 
L 151.869875 286.460599 
L 152.370113 286.456221 
L 152.870352 287.095115 
L 153.37059 286.876313 
L 153.870828 288.301429 
L 154.371066 287.510829 
L 154.871304 287.9353 
L 155.371542 288.645669 
L 155.87178 288.283917 
L 156.372018 289.208711 
L 156.872257 288.632535 
L 157.372495 289.12848 
L 157.872733 289.267051 
L 158.372971 288.76235 
L 158.873209 289.115345 
L 159.373447 288.253271 
L 159.873685 288.248892 
L 160.373924 288.601888 
L 160.874162 288.740459 
L 161.3744 289.879677 
L 161.874638 290.232673 
L 162.374876 289.870921 
L 162.875114 290.080967 
L 163.375352 289.147417 
L 164.375829 288.352439 
L 164.876067 287.41889 
L 165.376305 288.772531 
L 165.876543 288.41078 
L 166.376781 289.264098 
L 166.877019 288.973821 
L 167.377257 289.112393 
L 167.877495 290.037186 
L 168.377734 290.104283 
L 170.378686 294.589679 
L 170.878924 295.014149 
L 171.379162 293.437327 
L 172.379639 291.641702 
L 172.879877 290.20783 
L 173.380115 289.989027 
L 173.880353 287.983357 
L 174.380591 288.121928 
L 174.880829 286.259207 
L 175.881306 284.749481 
L 176.381544 284.38773 
L 176.881782 285.955796 
L 177.38202 286.880589 
L 177.882258 287.019161 
L 178.382496 288.587227 
L 178.882734 288.654323 
L 179.382972 290.937137 
L 179.883211 291.004233 
L 180.383449 292.929673 
L 180.883687 293.354143 
L 181.383925 294.707785 
L 181.884163 294.917831 
L 182.384401 294.913453 
L 182.884639 295.123499 
L 183.384877 295.119121 
L 184.385354 294.181193 
L 184.885592 292.318472 
L 185.38583 291.170499 
L 185.886068 289.093353 
L 186.886544 288.584274 
L 187.386782 288.93727 
L 187.887021 289.719113 
L 188.387259 289.571786 
L 188.887497 291.211327 
L 189.387735 291.135474 
L 189.887973 292.060267 
L 190.388211 291.841465 
L 190.888449 292.551834 
L 191.388687 294.1199 
L 191.888926 293.043401 
L 192.389164 293.682296 
L 192.889402 291.819575 
L 193.38964 292.31552 
L 193.889878 292.096717 
L 194.390116 292.163814 
L 194.890354 292.874183 
L 195.390593 293.227179 
L 195.890831 295.224093 
L 196.391069 295.005291 
L 196.891307 295.488 
L 197.891783 294.563308 
L 198.392021 294.344506 
L 198.892259 292.839159 
L 199.392498 292.191508 
L 199.892736 289.971413 
L 200.392974 289.681136 
L 200.893212 288.747587 
L 201.39345 288.957633 
L 201.893688 289.525052 
L 202.393926 289.4492 
L 202.894164 292.089387 
L 203.394403 293.01418 
L 203.894641 295.011095 
L 204.394879 295.488 
L 206.395831 295.488 
L 206.896069 293.555331 
L 207.396308 293.336529 
L 207.896546 291.402333 
L 208.396784 291.540905 
L 208.897022 290.321456 
L 209.39726 290.531502 
L 209.897498 291.384821 
L 210.397736 291.237493 
L 210.897975 293.019984 
L 211.398213 291.800535 
L 211.898451 293.082702 
L 212.398689 293.721597 
L 212.898927 292.001825 
L 213.399165 293.712841 
L 213.899403 292.493392 
L 214.399641 293.918509 
L 215.400118 293.838278 
L 215.900356 293.976849 
L 216.400594 291.756754 
L 216.900832 293.181871 
L 217.901308 293.10164 
L 218.401546 295.488 
L 219.902261 295.488 
L 221.402975 292.856569 
L 221.903213 294.138736 
L 222.403451 295.06353 
L 222.90369 295.488 
L 223.904166 295.488 
L 224.904642 292.682973 
L 225.40488 288.961909 
L 225.905118 288.028359 
L 227.405833 278.794985 
L 228.906547 262.414137 
L 230.407262 249.749975 
L 230.9075 246.815133 
L 232.408214 241.226969 
L 232.908452 239.650147 
L 233.40869 236.929729 
L 233.908928 234.995533 
L 234.409167 233.776085 
L 234.909405 230.126495 
L 235.409643 230.193592 
L 235.909881 228.044972 
L 236.410119 228.255018 
L 236.910357 226.89262 
L 237.410595 225.172848 
L 237.910833 224.239299 
L 238.411072 221.66183 
L 238.91131 221.228604 
L 239.911786 220.933949 
L 240.412024 222.787914 
L 240.912262 222.85501 
L 241.912738 221.27381 
L 242.913215 217.905742 
L 243.413453 217.472515 
L 243.913691 218.11141 
L 244.413929 220.108324 
L 244.914167 219.746572 
L 245.414405 221.028739 
L 246.414882 220.233761 
L 246.91512 221.515928 
L 247.415358 221.583025 
L 248.415834 224.433258 
L 248.916072 224.857728 
L 249.41631 223.852704 
L 249.916549 223.562427 
L 251.917501 217.969886 
L 252.417739 217.679609 
L 252.917977 216.889008 
L 253.418215 216.956105 
L 253.918454 218.238272 
L 254.418692 217.805046 
L 254.91893 220.087859 
L 255.419168 219.15431 
L 255.919406 219.793204 
L 256.419644 221.790118 
L 256.919882 222.929336 
L 257.42012 226.069846 
L 258.920835 230.988468 
L 259.421073 230.126394 
L 259.921311 232.051833 
L 260.421549 231.475657 
L 260.921787 233.472572 
L 261.422025 234.754739 
L 261.922264 234.250038 
L 262.422502 235.317781 
L 262.92274 233.883908 
L 263.422978 234.522802 
L 263.923216 234.44695 
L 264.423454 235.371743 
L 264.923692 237.940455 
L 265.423931 239.008198 
L 265.924169 242.005759 
L 266.424407 243.002027 
L 266.924645 245.785164 
L 267.424883 246.138159 
L 267.925121 247.062953 
L 268.425359 248.559544 
L 268.925597 247.268621 
L 269.425836 249.122586 
L 269.926074 248.903783 
L 270.426312 250.043001 
L 270.92655 250.467471 
L 271.426788 250.391618 
L 271.927026 252.031159 
L 272.427264 250.096963 
L 272.927502 252.165352 
L 273.427741 252.160974 
L 273.927979 251.656273 
L 274.428217 254.153511 
L 274.928455 253.648809 
L 275.428693 255.002451 
L 275.928931 254.926598 
L 276.429169 255.565493 
L 276.929407 256.561761 
L 277.429646 256.771807 
L 277.929884 259.912317 
L 278.430122 259.76499 
L 278.93036 261.69043 
L 279.430598 262.615223 
L 279.930836 262.039047 
L 280.431074 262.677942 
L 280.931313 261.029645 
L 281.431551 261.597064 
L 281.931789 260.663515 
L 282.932265 261.369506 
L 283.432503 260.864805 
L 283.932741 262.933194 
L 284.432979 262.285543 
L 284.933218 262.567064 
L 285.433456 263.849231 
L 285.933694 264.631075 
L 286.433932 267.271262 
L 286.93417 267.838682 
L 287.434408 269.692647 
L 287.934646 270.117117 
L 288.434884 269.898315 
L 288.935123 271.037533 
L 289.435361 269.031862 
L 290.435837 271.167348 
L 291.436313 271.515965 
L 291.936551 271.082739 
L 292.436789 270.363613 
L 292.937028 268.214993 
L 293.437266 267.710292 
L 293.937504 266.848217 
L 294.437742 266.55794 
L 294.93798 268.054532 
L 295.438218 268.050154 
L 296.438694 269.542367 
L 296.938933 269.823888 
L 297.439171 270.605732 
L 297.939409 271.101677 
L 298.439647 273.455965 
L 298.939885 274.094859 
L 299.440123 275.948824 
L 299.940361 276.30182 
L 300.4406 277.369563 
L 300.940838 278.151407 
L 301.441076 278.575877 
L 301.941314 278.714448 
L 302.94179 277.91947 
L 303.442028 277.772143 
L 303.942266 276.409745 
L 304.442505 276.262417 
L 304.942743 275.400342 
L 305.442981 275.538913 
L 305.943219 274.962738 
L 306.443457 274.958359 
L 306.943695 275.38283 
L 307.443933 275.521401 
L 307.944171 276.803568 
L 308.44441 277.228039 
L 309.945124 280.788641 
L 310.9456 281.423157 
L 311.445838 280.918456 
L 311.946076 280.628179 
L 312.946553 279.690251 
L 313.947029 278.39495 
L 314.447267 277.747299 
L 314.947505 276.6708 
L 315.447743 276.166099 
L 315.947982 276.304671 
L 316.44822 276.300292 
L 318.449172 279.356194 
L 318.94941 280.852785 
L 319.449648 281.205781 
L 319.949887 281.987624 
L 320.450125 282.48357 
L 320.950363 281.764444 
L 321.450601 282.474813 
L 321.950839 281.970112 
L 322.451077 282.751956 
L 322.951315 282.747578 
L 323.451553 282.528776 
L 323.951792 282.595872 
L 324.45203 281.519373 
L 324.952268 280.943197 
L 325.452506 280.867345 
L 325.952744 281.148865 
L 326.452982 282.788406 
L 326.95322 283.427301 
L 327.453458 283.851771 
L 327.953697 283.990342 
L 328.453935 282.770894 
L 328.954173 282.695041 
L 329.454411 281.975916 
L 329.954649 281.614164 
L 330.454887 282.753382 
L 330.955125 282.105731 
L 331.455363 282.887575 
L 331.955602 282.096975 
L 332.45584 282.092597 
L 332.956078 281.945269 
L 333.456316 282.298265 
L 334.95703 284.858221 
L 335.457269 286.426287 
L 335.957507 287.065181 
L 336.457745 288.132924 
L 337.458221 288.481542 
L 337.958459 288.477164 
L 338.458697 288.115412 
L 338.958935 287.324812 
L 339.459174 286.96306 
L 339.959412 285.886561 
L 340.45965 286.168082 
L 340.959888 285.377482 
L 342.460602 285.435822 
L 342.96084 286.289141 
L 343.461079 285.069692 
L 343.961317 285.923011 
L 344.461555 285.632734 
L 344.961793 285.128033 
L 345.462031 286.195776 
L 345.962269 285.691075 
L 346.462507 286.615868 
L 347.462984 286.821536 
L 347.963222 287.103057 
L 348.46346 285.812134 
L 348.963698 286.808402 
L 349.964174 286.084898 
L 350.464412 287.295591 
L 350.964651 286.862364 
L 351.464889 287.787158 
L 351.965127 287.782779 
L 352.465365 287.492502 
L 352.965603 287.702549 
L 353.465841 286.340151 
L 353.966079 286.836096 
L 354.466317 286.545819 
L 354.966556 286.469966 
L 355.466794 288.109507 
L 355.967032 288.248078 
L 356.46727 289.315821 
L 356.967508 289.525867 
L 357.467746 289.092641 
L 357.967984 289.374161 
L 358.468222 288.297662 
L 358.968461 288.507708 
L 359.468699 288.860704 
L 359.968937 288.641902 
L 360.469175 289.852594 
L 360.969413 289.419368 
L 361.469651 289.700888 
L 361.969889 289.625036 
L 362.470127 288.90591 
L 362.970366 289.616279 
L 363.470604 288.468306 
L 363.970842 289.464574 
L 364.47108 289.67462 
L 364.971318 289.598767 
L 365.471556 289.808813 
L 365.971794 288.374941 
L 366.472032 288.370562 
L 366.972271 287.365538 
L 367.972747 286.927934 
L 368.472985 287.209454 
L 368.973223 288.277197 
L 369.473461 288.487243 
L 371.474414 292.68674 
L 371.974652 293.325635 
L 372.47489 293.178307 
L 372.975128 293.316879 
L 373.975604 292.450426 
L 374.475843 291.659826 
L 374.976081 291.441023 
L 375.476319 290.507474 
L 375.976557 290.145722 
L 376.476795 288.926273 
L 376.977033 288.635996 
L 377.477271 287.488023 
L 377.977509 287.698069 
L 378.477748 287.050418 
L 378.977986 286.974565 
L 379.478224 286.398389 
L 379.978462 286.322536 
L 380.4787 286.032259 
L 380.978938 286.099356 
L 381.979414 286.948297 
L 382.979891 288.654934 
L 383.980367 290.861895 
L 384.480605 291.643739 
L 384.980843 292.640007 
L 385.481081 292.564154 
L 385.98132 292.988624 
L 386.481558 293.055721 
L 386.981796 291.907747 
L 387.482034 291.831894 
L 387.982272 290.898345 
L 388.48251 290.965441 
L 388.982748 290.174841 
L 389.482986 289.956039 
L 389.983225 290.737883 
L 390.483463 290.519081 
L 390.983701 292.087147 
L 391.483939 290.939173 
L 391.984177 291.435118 
L 392.484415 291.645164 
L 392.984653 290.997513 
L 393.484891 291.636408 
L 393.98513 290.917283 
L 394.485368 291.913551 
L 394.985606 291.551799 
L 395.485844 291.475946 
L 395.986082 291.543043 
L 398.487273 295.488 
L 398.487273 295.488 
" style="fill:none;stroke:#fbc15e;stroke-linecap:square;stroke-width:1.5;"/>
   </g>
   <g id="line2d_34">
    <path clip-path="url(#pf54addbd66)" d="M 73.832727 265.438609 
L 77.334394 272.515427 
L 78.835109 274.961235 
L 79.835585 276.18675 
L 82.336775 278.214155 
L 83.337252 278.867872 
L 84.337728 279.37864 
L 85.338204 279.746458 
L 85.838442 280.037579 
L 86.838919 280.262448 
L 87.339157 280.482095 
L 88.339633 280.706964 
L 89.340109 280.931833 
L 91.341062 281.310096 
L 92.341538 281.534965 
L 95.342967 281.995147 
L 95.843205 282.357744 
L 97.343919 282.65931 
L 99.344872 283.180522 
L 100.845586 283.339139 
L 102.346301 283.211856 
L 103.847015 283.298998 
L 107.84892 283.912575 
L 108.349158 284.132222 
L 110.350111 284.510485 
L 111.350587 284.735354 
L 112.351063 284.817273 
L 115.85273 285.282678 
L 116.853206 285.364597 
L 117.853683 285.517992 
L 118.353921 285.809113 
L 119.854635 286.182154 
L 123.356302 286.647559 
L 123.85654 286.509832 
L 124.857016 286.591751 
L 125.857493 286.530721 
L 129.35916 287.139075 
L 130.359636 287.363944 
L 131.86035 287.379611 
L 132.860826 287.675955 
L 133.861303 287.757875 
L 134.861779 288.054218 
L 135.362017 288.059441 
L 136.362493 288.427259 
L 137.36297 288.795077 
L 137.863208 288.728825 
L 139.86416 288.964139 
L 140.364398 288.897886 
L 140.864637 289.046058 
L 142.865589 289.138422 
L 146.867494 289.680524 
L 147.367732 289.685747 
L 148.368208 289.910616 
L 149.868923 290.212182 
L 151.369637 290.585222 
L 154.371066 290.97393 
L 155.87178 290.846648 
L 158.372971 290.944235 
L 159.373447 291.026154 
L 160.874162 291.113296 
L 161.874638 291.338165 
L 168.877972 292.340449 
L 170.378686 292.427591 
L 171.8794 292.586208 
L 172.879877 292.525178 
L 174.880829 292.617542 
L 176.381544 292.776159 
L 177.882258 292.8633 
L 179.382972 293.021917 
L 179.883211 292.88419 
L 180.883687 292.966109 
L 183.384877 293.27812 
L 184.885592 293.079363 
L 185.38583 293.29901 
L 186.886544 293.171727 
L 187.386782 293.17695 
L 187.887021 293.396596 
L 191.388687 293.933476 
L 191.888926 293.867223 
L 192.889402 293.949143 
L 195.390593 294.046729 
L 197.391545 294.353518 
L 197.891783 294.287265 
L 198.392021 294.363963 
L 198.892259 294.226235 
L 201.893688 294.329044 
L 202.894164 294.410964 
L 204.895117 294.503328 
L 205.895593 294.585248 
L 207.396308 294.52944 
L 208.396784 294.46841 
L 209.39726 294.693279 
L 209.897498 294.912925 
L 210.397736 294.775198 
L 210.897975 294.780421 
L 211.398213 294.928592 
L 212.398689 295.010512 
L 214.399641 295.245826 
L 215.400118 295.113321 
L 215.900356 295.332967 
L 217.40107 295.420109 
L 217.901308 295.488 
L 218.901785 295.435776 
L 220.402499 295.488 
L 224.404404 295.421748 
L 226.405356 294.942314 
L 227.405833 294.738335 
L 228.906547 294.182204 
L 229.907023 293.978224 
L 232.408214 293.218114 
L 232.908452 293.008912 
L 234.409167 292.73868 
L 235.909881 292.18255 
L 236.410119 292.044823 
L 237.410595 291.554944 
L 237.910833 291.345742 
L 238.411072 291.27949 
L 240.912262 290.304956 
L 242.412977 289.891774 
L 242.913215 289.611098 
L 245.914644 288.71326 
L 246.414882 288.432584 
L 247.915596 288.090877 
L 248.415834 288.0961 
L 249.916549 287.468494 
L 250.416787 287.402242 
L 251.417263 287.055313 
L 251.917501 286.98906 
L 252.917977 286.499182 
L 254.418692 286.157475 
L 254.91893 286.234173 
L 255.919406 286.101668 
L 256.919882 286.183587 
L 257.42012 286.18881 
L 257.920359 286.408456 
L 259.921311 286.50082 
L 261.422025 286.659437 
L 265.423931 286.629741 
L 265.924169 286.492014 
L 267.925121 286.584378 
L 268.425359 286.73255 
L 269.425836 286.67152 
L 270.426312 286.75344 
L 270.92655 286.830137 
L 271.426788 287.049783 
L 271.927026 287.12648 
L 272.927502 287.494299 
L 276.929407 288.608199 
L 279.930836 288.996906 
L 280.931313 289.078826 
L 281.431551 289.369947 
L 281.931789 289.303695 
L 282.932265 289.528564 
L 283.432503 289.319362 
L 283.932741 289.324584 
L 284.933218 289.549453 
L 286.433932 289.779545 
L 286.93417 289.713292 
L 287.434408 290.004413 
L 288.434884 290.086333 
L 288.935123 290.377454 
L 289.935599 290.673798 
L 290.936075 290.755717 
L 292.436789 290.914334 
L 292.937028 290.848082 
L 293.437266 290.924779 
L 295.438218 290.445345 
L 298.439647 290.405204 
L 298.939885 290.338952 
L 299.440123 290.558599 
L 300.940838 290.64574 
L 301.441076 290.793912 
L 301.941314 290.72766 
L 303.442028 290.886277 
L 303.942266 290.820024 
L 304.442505 290.896721 
L 304.942743 290.687519 
L 305.943219 290.912388 
L 306.943695 290.851358 
L 307.443933 290.928055 
L 307.944171 290.790328 
L 308.944648 290.800773 
L 309.444886 290.948945 
L 312.446315 290.479956 
L 312.946553 290.699603 
L 314.447267 290.858219 
L 314.947505 290.791967 
L 315.947982 291.016836 
L 316.44822 291.236482 
L 317.948934 291.538048 
L 318.449172 291.328846 
L 318.94941 291.405544 
L 319.949887 291.344514 
L 322.451077 291.299151 
L 323.451553 291.238121 
L 325.952744 291.335707 
L 326.452982 291.483879 
L 327.953697 291.499546 
L 328.453935 291.647718 
L 329.454411 291.586688 
L 331.455363 291.607577 
L 332.45584 291.403598 
L 333.956554 291.49074 
L 335.957507 291.726053 
L 336.957983 291.736498 
L 339.459174 292.405883 
L 341.960364 292.503469 
L 342.460602 292.580166 
L 343.461079 292.519136 
L 343.961317 292.595833 
L 344.461555 292.458106 
L 345.962269 292.545248 
L 350.464412 293.164047 
L 350.964651 293.16927 
L 351.464889 293.317441 
L 352.965603 293.190159 
L 355.466794 293.216271 
L 355.967032 293.078544 
L 356.46727 293.155241 
L 356.967508 293.088988 
L 359.468699 293.400999 
L 360.969413 293.345192 
L 361.469651 293.564838 
L 362.470127 293.646758 
L 362.970366 293.723455 
L 363.470604 293.657202 
L 365.971794 294.112163 
L 366.472032 294.260334 
L 367.472509 294.199304 
L 368.973223 294.572345 
L 375.976557 294.716933 
L 377.977509 295.238146 
L 379.478224 295.325287 
L 380.4787 295.407207 
L 381.979414 295.136975 
L 382.479653 294.999248 
L 384.980843 295.02536 
L 385.481081 294.887633 
L 386.481558 294.969552 
L 387.482034 295.265896 
L 388.982748 295.210088 
L 389.983225 295.149058 
L 390.483463 295.154281 
L 391.483939 295.37915 
L 392.984653 295.251867 
L 395.485844 295.349454 
L 396.48632 295.438521 
L 398.487273 295.488 
L 398.487273 295.488 
" style="fill:none;stroke:#8eba42;stroke-linecap:square;stroke-width:1.5;"/>
   </g>
   <g id="patch_3">
    <path d="M 57.6 307.584 
L 57.6 41.472 
" style="fill:none;stroke:#ffffff;stroke-linecap:square;stroke-linejoin:miter;"/>
   </g>
   <g id="patch_4">
    <path d="M 414.72 307.584 
L 414.72 41.472 
" style="fill:none;stroke:#ffffff;stroke-linecap:square;stroke-linejoin:miter;"/>
   </g>
   <g id="patch_5">
    <path d="M 57.6 307.584 
L 414.72 307.584 
" style="fill:none;stroke:#ffffff;stroke-linecap:square;stroke-linejoin:miter;"/>
   </g>
   <g id="patch_6">
    <path d="M 57.6 41.472 
L 414.72 41.472 
" style="fill:none;stroke:#ffffff;stroke-linecap:square;stroke-linejoin:miter;"/>
   </g>
   <g id="text_17">
    <!-- Correccin linea base -->
    <defs>
     <path d="M 64.40625 67.28125 
L 64.40625 56.890625 
Q 59.421875 61.53125 53.78125 63.8125 
Q 48.140625 66.109375 41.796875 66.109375 
Q 29.296875 66.109375 22.65625 58.46875 
Q 16.015625 50.828125 16.015625 36.375 
Q 16.015625 21.96875 22.65625 14.328125 
Q 29.296875 6.6875 41.796875 6.6875 
Q 48.140625 6.6875 53.78125 8.984375 
Q 59.421875 11.28125 64.40625 15.921875 
L 64.40625 5.609375 
Q 59.234375 2.09375 53.4375 0.328125 
Q 47.65625 -1.421875 41.21875 -1.421875 
Q 24.65625 -1.421875 15.125 8.703125 
Q 5.609375 18.84375 5.609375 36.375 
Q 5.609375 53.953125 15.125 64.078125 
Q 24.65625 74.21875 41.21875 74.21875 
Q 47.75 74.21875 53.53125 72.484375 
Q 59.328125 70.75 64.40625 67.28125 
z
" id="DejaVuSans-67"/>
     <path d="M 48.78125 52.59375 
L 48.78125 44.1875 
Q 44.96875 46.296875 41.140625 47.34375 
Q 37.3125 48.390625 33.40625 48.390625 
Q 24.65625 48.390625 19.8125 42.84375 
Q 14.984375 37.3125 14.984375 27.296875 
Q 14.984375 17.28125 19.8125 11.734375 
Q 24.65625 6.203125 33.40625 6.203125 
Q 37.3125 6.203125 41.140625 7.25 
Q 44.96875 8.296875 48.78125 10.40625 
L 48.78125 2.09375 
Q 45.015625 0.34375 40.984375 -0.53125 
Q 36.96875 -1.421875 32.421875 -1.421875 
Q 20.0625 -1.421875 12.78125 6.34375 
Q 5.515625 14.109375 5.515625 27.296875 
Q 5.515625 40.671875 12.859375 48.328125 
Q 20.21875 56 33.015625 56 
Q 37.15625 56 41.109375 55.140625 
Q 45.0625 54.296875 48.78125 52.59375 
z
" id="DejaVuSans-99"/>
     <path d="M 9.421875 54.6875 
L 18.40625 54.6875 
L 18.40625 0 
L 9.421875 0 
z
M 9.421875 75.984375 
L 18.40625 75.984375 
L 18.40625 64.59375 
L 9.421875 64.59375 
z
" id="DejaVuSans-105"/>
     <path d="M 30.609375 48.390625 
Q 23.390625 48.390625 19.1875 42.75 
Q 14.984375 37.109375 14.984375 27.296875 
Q 14.984375 17.484375 19.15625 11.84375 
Q 23.34375 6.203125 30.609375 6.203125 
Q 37.796875 6.203125 41.984375 11.859375 
Q 46.1875 17.53125 46.1875 27.296875 
Q 46.1875 37.015625 41.984375 42.703125 
Q 37.796875 48.390625 30.609375 48.390625 
z
M 30.609375 56 
Q 42.328125 56 49.015625 48.375 
Q 55.71875 40.765625 55.71875 27.296875 
Q 55.71875 13.875 49.015625 6.21875 
Q 42.328125 -1.421875 30.609375 -1.421875 
Q 18.84375 -1.421875 12.171875 6.21875 
Q 5.515625 13.875 5.515625 27.296875 
Q 5.515625 40.765625 12.171875 48.375 
Q 18.84375 56 30.609375 56 
z
M 37.40625 79.984375 
L 47.125 79.984375 
L 31.203125 61.625 
L 23.734375 61.625 
z
" id="DejaVuSans-243"/>
     <path d="M 54.890625 33.015625 
L 54.890625 0 
L 45.90625 0 
L 45.90625 32.71875 
Q 45.90625 40.484375 42.875 44.328125 
Q 39.84375 48.1875 33.796875 48.1875 
Q 26.515625 48.1875 22.3125 43.546875 
Q 18.109375 38.921875 18.109375 30.90625 
L 18.109375 0 
L 9.078125 0 
L 9.078125 54.6875 
L 18.109375 54.6875 
L 18.109375 46.1875 
Q 21.34375 51.125 25.703125 53.5625 
Q 30.078125 56 35.796875 56 
Q 45.21875 56 50.046875 50.171875 
Q 54.890625 44.34375 54.890625 33.015625 
z
" id="DejaVuSans-110"/>
     <path id="DejaVuSans-32"/>
     <path d="M 48.6875 27.296875 
Q 48.6875 37.203125 44.609375 42.84375 
Q 40.53125 48.484375 33.40625 48.484375 
Q 26.265625 48.484375 22.1875 42.84375 
Q 18.109375 37.203125 18.109375 27.296875 
Q 18.109375 17.390625 22.1875 11.75 
Q 26.265625 6.109375 33.40625 6.109375 
Q 40.53125 6.109375 44.609375 11.75 
Q 48.6875 17.390625 48.6875 27.296875 
z
M 18.109375 46.390625 
Q 20.953125 51.265625 25.265625 53.625 
Q 29.59375 56 35.59375 56 
Q 45.5625 56 51.78125 48.09375 
Q 58.015625 40.1875 58.015625 27.296875 
Q 58.015625 14.40625 51.78125 6.484375 
Q 45.5625 -1.421875 35.59375 -1.421875 
Q 29.59375 -1.421875 25.265625 0.953125 
Q 20.953125 3.328125 18.109375 8.203125 
L 18.109375 0 
L 9.078125 0 
L 9.078125 75.984375 
L 18.109375 75.984375 
z
" id="DejaVuSans-98"/>
    </defs>
    <g transform="translate(158.347125 35.472)scale(0.144 -0.144)">
     <use xlink:href="#DejaVuSans-67"/>
     <use x="69.824219" xlink:href="#DejaVuSans-111"/>
     <use x="131.005859" xlink:href="#DejaVuSans-114"/>
     <use x="172.103516" xlink:href="#DejaVuSans-114"/>
     <use x="213.185547" xlink:href="#DejaVuSans-101"/>
     <use x="274.708984" xlink:href="#DejaVuSans-99"/>
     <use x="329.689453" xlink:href="#DejaVuSans-99"/>
     <use x="384.669922" xlink:href="#DejaVuSans-105"/>
     <use x="412.453125" xlink:href="#DejaVuSans-243"/>
     <use x="473.634766" xlink:href="#DejaVuSans-110"/>
     <use x="537.013672" xlink:href="#DejaVuSans-32"/>
     <use x="568.800781" xlink:href="#DejaVuSans-108"/>
     <use x="596.583984" xlink:href="#DejaVuSans-105"/>
     <use x="624.367188" xlink:href="#DejaVuSans-110"/>
     <use x="687.746094" xlink:href="#DejaVuSans-101"/>
     <use x="749.269531" xlink:href="#DejaVuSans-97"/>
     <use x="810.548828" xlink:href="#DejaVuSans-32"/>
     <use x="842.335938" xlink:href="#DejaVuSans-98"/>
     <use x="905.8125" xlink:href="#DejaVuSans-97"/>
     <use x="967.091797" xlink:href="#DejaVuSans-115"/>
     <use x="1019.191406" xlink:href="#DejaVuSans-101"/>
    </g>
   </g>
   <g id="legend_1">
    <g id="patch_7">
     <path d="M 326.4575 137.54075 
L 407.72 137.54075 
Q 409.72 137.54075 409.72 135.54075 
L 409.72 48.472 
Q 409.72 46.472 407.72 46.472 
L 326.4575 46.472 
Q 324.4575 46.472 324.4575 48.472 
L 324.4575 135.54075 
Q 324.4575 137.54075 326.4575 137.54075 
z
" style="fill:#e5e5e5;opacity:0.8;stroke:#cccccc;stroke-linejoin:miter;stroke-width:0.5;"/>
    </g>
    <g id="line2d_35">
     <path d="M 328.4575 54.570438 
L 348.4575 54.570438 
" style="fill:none;stroke:#e24a33;stroke-linecap:square;stroke-width:1.5;"/>
    </g>
    <g id="line2d_36"/>
    <g id="text_18">
     <!-- TGS-822 -->
     <defs>
      <path d="M -0.296875 72.90625 
L 61.375 72.90625 
L 61.375 64.59375 
L 35.5 64.59375 
L 35.5 0 
L 25.59375 0 
L 25.59375 64.59375 
L -0.296875 64.59375 
z
" id="DejaVuSans-84"/>
      <path d="M 59.515625 10.40625 
L 59.515625 29.984375 
L 43.40625 29.984375 
L 43.40625 38.09375 
L 69.28125 38.09375 
L 69.28125 6.78125 
Q 63.578125 2.734375 56.6875 0.65625 
Q 49.8125 -1.421875 42 -1.421875 
Q 24.90625 -1.421875 15.25 8.5625 
Q 5.609375 18.5625 5.609375 36.375 
Q 5.609375 54.25 15.25 64.234375 
Q 24.90625 74.21875 42 74.21875 
Q 49.125 74.21875 55.546875 72.453125 
Q 61.96875 70.703125 67.390625 67.28125 
L 67.390625 56.78125 
Q 61.921875 61.421875 55.765625 63.765625 
Q 49.609375 66.109375 42.828125 66.109375 
Q 29.4375 66.109375 22.71875 58.640625 
Q 16.015625 51.171875 16.015625 36.375 
Q 16.015625 21.625 22.71875 14.15625 
Q 29.4375 6.6875 42.828125 6.6875 
Q 48.046875 6.6875 52.140625 7.59375 
Q 56.25 8.5 59.515625 10.40625 
z
" id="DejaVuSans-71"/>
      <path d="M 53.515625 70.515625 
L 53.515625 60.890625 
Q 47.90625 63.578125 42.921875 64.890625 
Q 37.9375 66.21875 33.296875 66.21875 
Q 25.25 66.21875 20.875 63.09375 
Q 16.5 59.96875 16.5 54.203125 
Q 16.5 49.359375 19.40625 46.890625 
Q 22.3125 44.4375 30.421875 42.921875 
L 36.375 41.703125 
Q 47.40625 39.59375 52.65625 34.296875 
Q 57.90625 29 57.90625 20.125 
Q 57.90625 9.515625 50.796875 4.046875 
Q 43.703125 -1.421875 29.984375 -1.421875 
Q 24.8125 -1.421875 18.96875 -0.25 
Q 13.140625 0.921875 6.890625 3.21875 
L 6.890625 13.375 
Q 12.890625 10.015625 18.65625 8.296875 
Q 24.421875 6.59375 29.984375 6.59375 
Q 38.421875 6.59375 43.015625 9.90625 
Q 47.609375 13.234375 47.609375 19.390625 
Q 47.609375 24.75 44.3125 27.78125 
Q 41.015625 30.8125 33.5 32.328125 
L 27.484375 33.5 
Q 16.453125 35.6875 11.515625 40.375 
Q 6.59375 45.0625 6.59375 53.421875 
Q 6.59375 63.09375 13.40625 68.65625 
Q 20.21875 74.21875 32.171875 74.21875 
Q 37.3125 74.21875 42.625 73.28125 
Q 47.953125 72.359375 53.515625 70.515625 
z
" id="DejaVuSans-83"/>
      <path d="M 4.890625 31.390625 
L 31.203125 31.390625 
L 31.203125 23.390625 
L 4.890625 23.390625 
z
" id="DejaVuSans-45"/>
      <path d="M 31.78125 34.625 
Q 24.75 34.625 20.71875 30.859375 
Q 16.703125 27.09375 16.703125 20.515625 
Q 16.703125 13.921875 20.71875 10.15625 
Q 24.75 6.390625 31.78125 6.390625 
Q 38.8125 6.390625 42.859375 10.171875 
Q 46.921875 13.96875 46.921875 20.515625 
Q 46.921875 27.09375 42.890625 30.859375 
Q 38.875 34.625 31.78125 34.625 
z
M 21.921875 38.8125 
Q 15.578125 40.375 12.03125 44.71875 
Q 8.5 49.078125 8.5 55.328125 
Q 8.5 64.0625 14.71875 69.140625 
Q 20.953125 74.21875 31.78125 74.21875 
Q 42.671875 74.21875 48.875 69.140625 
Q 55.078125 64.0625 55.078125 55.328125 
Q 55.078125 49.078125 51.53125 44.71875 
Q 48 40.375 41.703125 38.8125 
Q 48.828125 37.15625 52.796875 32.3125 
Q 56.78125 27.484375 56.78125 20.515625 
Q 56.78125 9.90625 50.3125 4.234375 
Q 43.84375 -1.421875 31.78125 -1.421875 
Q 19.734375 -1.421875 13.25 4.234375 
Q 6.78125 9.90625 6.78125 20.515625 
Q 6.78125 27.484375 10.78125 32.3125 
Q 14.796875 37.15625 21.921875 38.8125 
z
M 18.3125 54.390625 
Q 18.3125 48.734375 21.84375 45.5625 
Q 25.390625 42.390625 31.78125 42.390625 
Q 38.140625 42.390625 41.71875 45.5625 
Q 45.3125 48.734375 45.3125 54.390625 
Q 45.3125 60.0625 41.71875 63.234375 
Q 38.140625 66.40625 31.78125 66.40625 
Q 25.390625 66.40625 21.84375 63.234375 
Q 18.3125 60.0625 18.3125 54.390625 
z
" id="DejaVuSans-56"/>
     </defs>
     <g transform="translate(356.4575 58.070438)scale(0.1 -0.1)">
      <use xlink:href="#DejaVuSans-84"/>
      <use x="61.083984" xlink:href="#DejaVuSans-71"/>
      <use x="138.574219" xlink:href="#DejaVuSans-83"/>
      <use x="202.050781" xlink:href="#DejaVuSans-45"/>
      <use x="238.134766" xlink:href="#DejaVuSans-56"/>
      <use x="301.757812" xlink:href="#DejaVuSans-50"/>
      <use x="365.380859" xlink:href="#DejaVuSans-50"/>
     </g>
    </g>
    <g id="line2d_37">
     <path d="M 328.4575 69.248563 
L 348.4575 69.248563 
" style="fill:none;stroke:#348abd;stroke-linecap:square;stroke-width:1.5;"/>
    </g>
    <g id="line2d_38"/>
    <g id="text_19">
     <!-- TGS-825 -->
     <g transform="translate(356.4575 72.748563)scale(0.1 -0.1)">
      <use xlink:href="#DejaVuSans-84"/>
      <use x="61.083984" xlink:href="#DejaVuSans-71"/>
      <use x="138.574219" xlink:href="#DejaVuSans-83"/>
      <use x="202.050781" xlink:href="#DejaVuSans-45"/>
      <use x="238.134766" xlink:href="#DejaVuSans-56"/>
      <use x="301.757812" xlink:href="#DejaVuSans-50"/>
      <use x="365.380859" xlink:href="#DejaVuSans-53"/>
     </g>
    </g>
    <g id="line2d_39">
     <path d="M 328.4575 83.926688 
L 348.4575 83.926688 
" style="fill:none;stroke:#988ed5;stroke-linecap:square;stroke-width:1.5;"/>
    </g>
    <g id="line2d_40"/>
    <g id="text_20">
     <!-- TGS-2610 -->
     <g transform="translate(356.4575 87.426688)scale(0.1 -0.1)">
      <use xlink:href="#DejaVuSans-84"/>
      <use x="61.083984" xlink:href="#DejaVuSans-71"/>
      <use x="138.574219" xlink:href="#DejaVuSans-83"/>
      <use x="202.050781" xlink:href="#DejaVuSans-45"/>
      <use x="238.134766" xlink:href="#DejaVuSans-50"/>
      <use x="301.757812" xlink:href="#DejaVuSans-54"/>
      <use x="365.380859" xlink:href="#DejaVuSans-49"/>
      <use x="429.003906" xlink:href="#DejaVuSans-48"/>
     </g>
    </g>
    <g id="line2d_41">
     <path d="M 328.4575 98.604813 
L 348.4575 98.604813 
" style="fill:none;stroke:#777777;stroke-linecap:square;stroke-width:1.5;"/>
    </g>
    <g id="line2d_42"/>
    <g id="text_21">
     <!-- TGS-826 -->
     <g transform="translate(356.4575 102.104813)scale(0.1 -0.1)">
      <use xlink:href="#DejaVuSans-84"/>
      <use x="61.083984" xlink:href="#DejaVuSans-71"/>
      <use x="138.574219" xlink:href="#DejaVuSans-83"/>
      <use x="202.050781" xlink:href="#DejaVuSans-45"/>
      <use x="238.134766" xlink:href="#DejaVuSans-56"/>
      <use x="301.757812" xlink:href="#DejaVuSans-50"/>
      <use x="365.380859" xlink:href="#DejaVuSans-54"/>
     </g>
    </g>
    <g id="line2d_43">
     <path d="M 328.4575 113.282938 
L 348.4575 113.282938 
" style="fill:none;stroke:#fbc15e;stroke-linecap:square;stroke-width:1.5;"/>
    </g>
    <g id="line2d_44"/>
    <g id="text_22">
     <!-- TGS-822 -->
     <g transform="translate(356.4575 116.782938)scale(0.1 -0.1)">
      <use xlink:href="#DejaVuSans-84"/>
      <use x="61.083984" xlink:href="#DejaVuSans-71"/>
      <use x="138.574219" xlink:href="#DejaVuSans-83"/>
      <use x="202.050781" xlink:href="#DejaVuSans-45"/>
      <use x="238.134766" xlink:href="#DejaVuSans-56"/>
      <use x="301.757812" xlink:href="#DejaVuSans-50"/>
      <use x="365.380859" xlink:href="#DejaVuSans-50"/>
     </g>
    </g>
    <g id="line2d_45">
     <path d="M 328.4575 127.961063 
L 348.4575 127.961063 
" style="fill:none;stroke:#8eba42;stroke-linecap:square;stroke-width:1.5;"/>
    </g>
    <g id="line2d_46"/>
    <g id="text_23">
     <!-- TGS-826 -->
     <g transform="translate(356.4575 131.461063)scale(0.1 -0.1)">
      <use xlink:href="#DejaVuSans-84"/>
      <use x="61.083984" xlink:href="#DejaVuSans-71"/>
      <use x="138.574219" xlink:href="#DejaVuSans-83"/>
      <use x="202.050781" xlink:href="#DejaVuSans-45"/>
      <use x="238.134766" xlink:href="#DejaVuSans-56"/>
      <use x="301.757812" xlink:href="#DejaVuSans-50"/>
      <use x="365.380859" xlink:href="#DejaVuSans-54"/>
     </g>
    </g>
   </g>
  </g>
 </g>
 <defs>
  <clipPath id="pf54addbd66">
   <rect height="266.112" width="357.12" x="57.6" y="41.472"/>
  </clipPath>
 </defs>
</svg>
