<?xml version="1.0" encoding="utf-8" standalone="no"?>
<!DOCTYPE svg PUBLIC "-//W3C//DTD SVG 1.1//EN"
  "http://www.w3.org/Graphics/SVG/1.1/DTD/svg11.dtd">
<!-- Created with matplotlib (https://matplotlib.org/) -->
<svg height="581.04pt" version="1.1" viewBox="0 0 1105.92 581.04" width="1105.92pt" xmlns="http://www.w3.org/2000/svg" xmlns:xlink="http://www.w3.org/1999/xlink">
 <defs>
  <style type="text/css">
*{stroke-linecap:butt;stroke-linejoin:round;}
  </style>
 </defs>
 <g id="figure_1">
  <g id="patch_1">
   <path d="M 0 581.04 
L 1105.92 581.04 
L 1105.92 0 
L 0 0 
z
" style="fill:#ffffff;"/>
  </g>
  <g id="axes_1">
   <g id="patch_2">
    <path d="M 138.24 517.1256 
L 995.328 517.1256 
L 995.328 69.7248 
L 138.24 69.7248 
z
" style="fill:#e5e5e5;"/>
   </g>
   <g id="matplotlib.axis_1">
    <g id="xtick_1">
     <g id="line2d_1">
      <path clip-path="url(#p6dfaa88f3a)" d="M 177.198545 517.1256 
L 177.198545 69.7248 
" style="fill:none;stroke:#ffffff;stroke-linecap:square;stroke-width:0.8;"/>
     </g>
     <g id="line2d_2">
      <defs>
       <path d="M 0 0 
L 0 3.5 
" id="m81e3cfd694" style="stroke:#555555;stroke-width:0.8;"/>
      </defs>
      <g>
       <use style="fill:#555555;stroke:#555555;stroke-width:0.8;" x="177.198545" xlink:href="#m81e3cfd694" y="517.1256"/>
      </g>
     </g>
     <g id="text_1">
      <!-- 0 -->
      <defs>
       <path d="M 31.78125 66.40625 
Q 24.171875 66.40625 20.328125 58.90625 
Q 16.5 51.421875 16.5 36.375 
Q 16.5 21.390625 20.328125 13.890625 
Q 24.171875 6.390625 31.78125 6.390625 
Q 39.453125 6.390625 43.28125 13.890625 
Q 47.125 21.390625 47.125 36.375 
Q 47.125 51.421875 43.28125 58.90625 
Q 39.453125 66.40625 31.78125 66.40625 
z
M 31.78125 74.21875 
Q 44.046875 74.21875 50.515625 64.515625 
Q 56.984375 54.828125 56.984375 36.375 
Q 56.984375 17.96875 50.515625 8.265625 
Q 44.046875 -1.421875 31.78125 -1.421875 
Q 19.53125 -1.421875 13.0625 8.265625 
Q 6.59375 17.96875 6.59375 36.375 
Q 6.59375 54.828125 13.0625 64.515625 
Q 19.53125 74.21875 31.78125 74.21875 
z
" id="DejaVuSans-48"/>
      </defs>
      <g style="fill:#555555;" transform="translate(174.017295 531.724038)scale(0.1 -0.1)">
       <use xlink:href="#DejaVuSans-48"/>
      </g>
     </g>
    </g>
    <g id="xtick_2">
     <g id="line2d_3">
      <path clip-path="url(#p6dfaa88f3a)" d="M 360.102515 517.1256 
L 360.102515 69.7248 
" style="fill:none;stroke:#ffffff;stroke-linecap:square;stroke-width:0.8;"/>
     </g>
     <g id="line2d_4">
      <g>
       <use style="fill:#555555;stroke:#555555;stroke-width:0.8;" x="360.102515" xlink:href="#m81e3cfd694" y="517.1256"/>
      </g>
     </g>
     <g id="text_2">
      <!-- 500 -->
      <defs>
       <path d="M 10.796875 72.90625 
L 49.515625 72.90625 
L 49.515625 64.59375 
L 19.828125 64.59375 
L 19.828125 46.734375 
Q 21.96875 47.46875 24.109375 47.828125 
Q 26.265625 48.1875 28.421875 48.1875 
Q 40.625 48.1875 47.75 41.5 
Q 54.890625 34.8125 54.890625 23.390625 
Q 54.890625 11.625 47.5625 5.09375 
Q 40.234375 -1.421875 26.90625 -1.421875 
Q 22.3125 -1.421875 17.546875 -0.640625 
Q 12.796875 0.140625 7.71875 1.703125 
L 7.71875 11.625 
Q 12.109375 9.234375 16.796875 8.0625 
Q 21.484375 6.890625 26.703125 6.890625 
Q 35.15625 6.890625 40.078125 11.328125 
Q 45.015625 15.765625 45.015625 23.390625 
Q 45.015625 31 40.078125 35.4375 
Q 35.15625 39.890625 26.703125 39.890625 
Q 22.75 39.890625 18.8125 39.015625 
Q 14.890625 38.140625 10.796875 36.28125 
z
" id="DejaVuSans-53"/>
      </defs>
      <g style="fill:#555555;" transform="translate(350.558765 531.724038)scale(0.1 -0.1)">
       <use xlink:href="#DejaVuSans-53"/>
       <use x="63.623047" xlink:href="#DejaVuSans-48"/>
       <use x="127.246094" xlink:href="#DejaVuSans-48"/>
      </g>
     </g>
    </g>
    <g id="xtick_3">
     <g id="line2d_5">
      <path clip-path="url(#p6dfaa88f3a)" d="M 543.006484 517.1256 
L 543.006484 69.7248 
" style="fill:none;stroke:#ffffff;stroke-linecap:square;stroke-width:0.8;"/>
     </g>
     <g id="line2d_6">
      <g>
       <use style="fill:#555555;stroke:#555555;stroke-width:0.8;" x="543.006484" xlink:href="#m81e3cfd694" y="517.1256"/>
      </g>
     </g>
     <g id="text_3">
      <!-- 1000 -->
      <defs>
       <path d="M 12.40625 8.296875 
L 28.515625 8.296875 
L 28.515625 63.921875 
L 10.984375 60.40625 
L 10.984375 69.390625 
L 28.421875 72.90625 
L 38.28125 72.90625 
L 38.28125 8.296875 
L 54.390625 8.296875 
L 54.390625 0 
L 12.40625 0 
z
" id="DejaVuSans-49"/>
      </defs>
      <g style="fill:#555555;" transform="translate(530.281484 531.724038)scale(0.1 -0.1)">
       <use xlink:href="#DejaVuSans-49"/>
       <use x="63.623047" xlink:href="#DejaVuSans-48"/>
       <use x="127.246094" xlink:href="#DejaVuSans-48"/>
       <use x="190.869141" xlink:href="#DejaVuSans-48"/>
      </g>
     </g>
    </g>
    <g id="xtick_4">
     <g id="line2d_7">
      <path clip-path="url(#p6dfaa88f3a)" d="M 725.910453 517.1256 
L 725.910453 69.7248 
" style="fill:none;stroke:#ffffff;stroke-linecap:square;stroke-width:0.8;"/>
     </g>
     <g id="line2d_8">
      <g>
       <use style="fill:#555555;stroke:#555555;stroke-width:0.8;" x="725.910453" xlink:href="#m81e3cfd694" y="517.1256"/>
      </g>
     </g>
     <g id="text_4">
      <!-- 1500 -->
      <g style="fill:#555555;" transform="translate(713.185453 531.724038)scale(0.1 -0.1)">
       <use xlink:href="#DejaVuSans-49"/>
       <use x="63.623047" xlink:href="#DejaVuSans-53"/>
       <use x="127.246094" xlink:href="#DejaVuSans-48"/>
       <use x="190.869141" xlink:href="#DejaVuSans-48"/>
      </g>
     </g>
    </g>
    <g id="xtick_5">
     <g id="line2d_9">
      <path clip-path="url(#p6dfaa88f3a)" d="M 908.814423 517.1256 
L 908.814423 69.7248 
" style="fill:none;stroke:#ffffff;stroke-linecap:square;stroke-width:0.8;"/>
     </g>
     <g id="line2d_10">
      <g>
       <use style="fill:#555555;stroke:#555555;stroke-width:0.8;" x="908.814423" xlink:href="#m81e3cfd694" y="517.1256"/>
      </g>
     </g>
     <g id="text_5">
      <!-- 2000 -->
      <defs>
       <path d="M 19.1875 8.296875 
L 53.609375 8.296875 
L 53.609375 0 
L 7.328125 0 
L 7.328125 8.296875 
Q 12.9375 14.109375 22.625 23.890625 
Q 32.328125 33.6875 34.8125 36.53125 
Q 39.546875 41.84375 41.421875 45.53125 
Q 43.3125 49.21875 43.3125 52.78125 
Q 43.3125 58.59375 39.234375 62.25 
Q 35.15625 65.921875 28.609375 65.921875 
Q 23.96875 65.921875 18.8125 64.3125 
Q 13.671875 62.703125 7.8125 59.421875 
L 7.8125 69.390625 
Q 13.765625 71.78125 18.9375 73 
Q 24.125 74.21875 28.421875 74.21875 
Q 39.75 74.21875 46.484375 68.546875 
Q 53.21875 62.890625 53.21875 53.421875 
Q 53.21875 48.921875 51.53125 44.890625 
Q 49.859375 40.875 45.40625 35.40625 
Q 44.1875 33.984375 37.640625 27.21875 
Q 31.109375 20.453125 19.1875 8.296875 
z
" id="DejaVuSans-50"/>
      </defs>
      <g style="fill:#555555;" transform="translate(896.089423 531.724038)scale(0.1 -0.1)">
       <use xlink:href="#DejaVuSans-50"/>
       <use x="63.623047" xlink:href="#DejaVuSans-48"/>
       <use x="127.246094" xlink:href="#DejaVuSans-48"/>
       <use x="190.869141" xlink:href="#DejaVuSans-48"/>
      </g>
     </g>
    </g>
    <g id="text_6">
     <!-- Muestra -->
     <defs>
      <path d="M 9.8125 72.90625 
L 24.515625 72.90625 
L 43.109375 23.296875 
L 61.8125 72.90625 
L 76.515625 72.90625 
L 76.515625 0 
L 66.890625 0 
L 66.890625 64.015625 
L 48.09375 14.015625 
L 38.1875 14.015625 
L 19.390625 64.015625 
L 19.390625 0 
L 9.8125 0 
z
" id="DejaVuSans-77"/>
      <path d="M 8.5 21.578125 
L 8.5 54.6875 
L 17.484375 54.6875 
L 17.484375 21.921875 
Q 17.484375 14.15625 20.5 10.265625 
Q 23.53125 6.390625 29.59375 6.390625 
Q 36.859375 6.390625 41.078125 11.03125 
Q 45.3125 15.671875 45.3125 23.6875 
L 45.3125 54.6875 
L 54.296875 54.6875 
L 54.296875 0 
L 45.3125 0 
L 45.3125 8.40625 
Q 42.046875 3.421875 37.71875 1 
Q 33.40625 -1.421875 27.6875 -1.421875 
Q 18.265625 -1.421875 13.375 4.4375 
Q 8.5 10.296875 8.5 21.578125 
z
M 31.109375 56 
z
" id="DejaVuSans-117"/>
      <path d="M 56.203125 29.59375 
L 56.203125 25.203125 
L 14.890625 25.203125 
Q 15.484375 15.921875 20.484375 11.0625 
Q 25.484375 6.203125 34.421875 6.203125 
Q 39.59375 6.203125 44.453125 7.46875 
Q 49.3125 8.734375 54.109375 11.28125 
L 54.109375 2.78125 
Q 49.265625 0.734375 44.1875 -0.34375 
Q 39.109375 -1.421875 33.890625 -1.421875 
Q 20.796875 -1.421875 13.15625 6.1875 
Q 5.515625 13.8125 5.515625 26.8125 
Q 5.515625 40.234375 12.765625 48.109375 
Q 20.015625 56 32.328125 56 
Q 43.359375 56 49.78125 48.890625 
Q 56.203125 41.796875 56.203125 29.59375 
z
M 47.21875 32.234375 
Q 47.125 39.59375 43.09375 43.984375 
Q 39.0625 48.390625 32.421875 48.390625 
Q 24.90625 48.390625 20.390625 44.140625 
Q 15.875 39.890625 15.1875 32.171875 
z
" id="DejaVuSans-101"/>
      <path d="M 44.28125 53.078125 
L 44.28125 44.578125 
Q 40.484375 46.53125 36.375 47.5 
Q 32.28125 48.484375 27.875 48.484375 
Q 21.1875 48.484375 17.84375 46.4375 
Q 14.5 44.390625 14.5 40.28125 
Q 14.5 37.15625 16.890625 35.375 
Q 19.28125 33.59375 26.515625 31.984375 
L 29.59375 31.296875 
Q 39.15625 29.25 43.1875 25.515625 
Q 47.21875 21.78125 47.21875 15.09375 
Q 47.21875 7.46875 41.1875 3.015625 
Q 35.15625 -1.421875 24.609375 -1.421875 
Q 20.21875 -1.421875 15.453125 -0.5625 
Q 10.6875 0.296875 5.421875 2 
L 5.421875 11.28125 
Q 10.40625 8.6875 15.234375 7.390625 
Q 20.0625 6.109375 24.8125 6.109375 
Q 31.15625 6.109375 34.5625 8.28125 
Q 37.984375 10.453125 37.984375 14.40625 
Q 37.984375 18.0625 35.515625 20.015625 
Q 33.0625 21.96875 24.703125 23.78125 
L 21.578125 24.515625 
Q 13.234375 26.265625 9.515625 29.90625 
Q 5.8125 33.546875 5.8125 39.890625 
Q 5.8125 47.609375 11.28125 51.796875 
Q 16.75 56 26.8125 56 
Q 31.78125 56 36.171875 55.265625 
Q 40.578125 54.546875 44.28125 53.078125 
z
" id="DejaVuSans-115"/>
      <path d="M 18.3125 70.21875 
L 18.3125 54.6875 
L 36.8125 54.6875 
L 36.8125 47.703125 
L 18.3125 47.703125 
L 18.3125 18.015625 
Q 18.3125 11.328125 20.140625 9.421875 
Q 21.96875 7.515625 27.59375 7.515625 
L 36.8125 7.515625 
L 36.8125 0 
L 27.59375 0 
Q 17.1875 0 13.234375 3.875 
Q 9.28125 7.765625 9.28125 18.015625 
L 9.28125 47.703125 
L 2.6875 47.703125 
L 2.6875 54.6875 
L 9.28125 54.6875 
L 9.28125 70.21875 
z
" id="DejaVuSans-116"/>
      <path d="M 41.109375 46.296875 
Q 39.59375 47.171875 37.8125 47.578125 
Q 36.03125 48 33.890625 48 
Q 26.265625 48 22.1875 43.046875 
Q 18.109375 38.09375 18.109375 28.8125 
L 18.109375 0 
L 9.078125 0 
L 9.078125 54.6875 
L 18.109375 54.6875 
L 18.109375 46.1875 
Q 20.953125 51.171875 25.484375 53.578125 
Q 30.03125 56 36.53125 56 
Q 37.453125 56 38.578125 55.875 
Q 39.703125 55.765625 41.0625 55.515625 
z
" id="DejaVuSans-114"/>
      <path d="M 34.28125 27.484375 
Q 23.390625 27.484375 19.1875 25 
Q 14.984375 22.515625 14.984375 16.5 
Q 14.984375 11.71875 18.140625 8.90625 
Q 21.296875 6.109375 26.703125 6.109375 
Q 34.1875 6.109375 38.703125 11.40625 
Q 43.21875 16.703125 43.21875 25.484375 
L 43.21875 27.484375 
z
M 52.203125 31.203125 
L 52.203125 0 
L 43.21875 0 
L 43.21875 8.296875 
Q 40.140625 3.328125 35.546875 0.953125 
Q 30.953125 -1.421875 24.3125 -1.421875 
Q 15.921875 -1.421875 10.953125 3.296875 
Q 6 8.015625 6 15.921875 
Q 6 25.140625 12.171875 29.828125 
Q 18.359375 34.515625 30.609375 34.515625 
L 43.21875 34.515625 
L 43.21875 35.40625 
Q 43.21875 41.609375 39.140625 45 
Q 35.0625 48.390625 27.6875 48.390625 
Q 23 48.390625 18.546875 47.265625 
Q 14.109375 46.140625 10.015625 43.890625 
L 10.015625 52.203125 
Q 14.9375 54.109375 19.578125 55.046875 
Q 24.21875 56 28.609375 56 
Q 40.484375 56 46.34375 49.84375 
Q 52.203125 43.703125 52.203125 31.203125 
z
" id="DejaVuSans-97"/>
     </defs>
     <g style="fill:#555555;" transform="translate(542.4915 546.92185)scale(0.12 -0.12)">
      <use xlink:href="#DejaVuSans-77"/>
      <use x="86.279297" xlink:href="#DejaVuSans-117"/>
      <use x="149.658203" xlink:href="#DejaVuSans-101"/>
      <use x="211.181641" xlink:href="#DejaVuSans-115"/>
      <use x="263.28125" xlink:href="#DejaVuSans-116"/>
      <use x="302.490234" xlink:href="#DejaVuSans-114"/>
      <use x="343.603516" xlink:href="#DejaVuSans-97"/>
     </g>
    </g>
   </g>
   <g id="matplotlib.axis_2">
    <g id="ytick_1">
     <g id="line2d_11">
      <path clip-path="url(#p6dfaa88f3a)" d="M 138.24 496.7892 
L 995.328 496.7892 
" style="fill:none;stroke:#ffffff;stroke-linecap:square;stroke-width:0.8;"/>
     </g>
     <g id="line2d_12">
      <defs>
       <path d="M 0 0 
L -3.5 0 
" id="m0162441b8d" style="stroke:#555555;stroke-width:0.8;"/>
      </defs>
      <g>
       <use style="fill:#555555;stroke:#555555;stroke-width:0.8;" x="138.24" xlink:href="#m0162441b8d" y="496.7892"/>
      </g>
     </g>
     <g id="text_7">
      <!-- 0 -->
      <g style="fill:#555555;" transform="translate(124.8775 500.588419)scale(0.1 -0.1)">
       <use xlink:href="#DejaVuSans-48"/>
      </g>
     </g>
    </g>
    <g id="ytick_2">
     <g id="line2d_13">
      <path clip-path="url(#p6dfaa88f3a)" d="M 138.24 430.697408 
L 995.328 430.697408 
" style="fill:none;stroke:#ffffff;stroke-linecap:square;stroke-width:0.8;"/>
     </g>
     <g id="line2d_14">
      <g>
       <use style="fill:#555555;stroke:#555555;stroke-width:0.8;" x="138.24" xlink:href="#m0162441b8d" y="430.697408"/>
      </g>
     </g>
     <g id="text_8">
      <!-- 50 -->
      <g style="fill:#555555;" transform="translate(118.515 434.496627)scale(0.1 -0.1)">
       <use xlink:href="#DejaVuSans-53"/>
       <use x="63.623047" xlink:href="#DejaVuSans-48"/>
      </g>
     </g>
    </g>
    <g id="ytick_3">
     <g id="line2d_15">
      <path clip-path="url(#p6dfaa88f3a)" d="M 138.24 364.605617 
L 995.328 364.605617 
" style="fill:none;stroke:#ffffff;stroke-linecap:square;stroke-width:0.8;"/>
     </g>
     <g id="line2d_16">
      <g>
       <use style="fill:#555555;stroke:#555555;stroke-width:0.8;" x="138.24" xlink:href="#m0162441b8d" y="364.605617"/>
      </g>
     </g>
     <g id="text_9">
      <!-- 100 -->
      <g style="fill:#555555;" transform="translate(112.1525 368.404836)scale(0.1 -0.1)">
       <use xlink:href="#DejaVuSans-49"/>
       <use x="63.623047" xlink:href="#DejaVuSans-48"/>
       <use x="127.246094" xlink:href="#DejaVuSans-48"/>
      </g>
     </g>
    </g>
    <g id="ytick_4">
     <g id="line2d_17">
      <path clip-path="url(#p6dfaa88f3a)" d="M 138.24 298.513825 
L 995.328 298.513825 
" style="fill:none;stroke:#ffffff;stroke-linecap:square;stroke-width:0.8;"/>
     </g>
     <g id="line2d_18">
      <g>
       <use style="fill:#555555;stroke:#555555;stroke-width:0.8;" x="138.24" xlink:href="#m0162441b8d" y="298.513825"/>
      </g>
     </g>
     <g id="text_10">
      <!-- 150 -->
      <g style="fill:#555555;" transform="translate(112.1525 302.313044)scale(0.1 -0.1)">
       <use xlink:href="#DejaVuSans-49"/>
       <use x="63.623047" xlink:href="#DejaVuSans-53"/>
       <use x="127.246094" xlink:href="#DejaVuSans-48"/>
      </g>
     </g>
    </g>
    <g id="ytick_5">
     <g id="line2d_19">
      <path clip-path="url(#p6dfaa88f3a)" d="M 138.24 232.422034 
L 995.328 232.422034 
" style="fill:none;stroke:#ffffff;stroke-linecap:square;stroke-width:0.8;"/>
     </g>
     <g id="line2d_20">
      <g>
       <use style="fill:#555555;stroke:#555555;stroke-width:0.8;" x="138.24" xlink:href="#m0162441b8d" y="232.422034"/>
      </g>
     </g>
     <g id="text_11">
      <!-- 200 -->
      <g style="fill:#555555;" transform="translate(112.1525 236.221253)scale(0.1 -0.1)">
       <use xlink:href="#DejaVuSans-50"/>
       <use x="63.623047" xlink:href="#DejaVuSans-48"/>
       <use x="127.246094" xlink:href="#DejaVuSans-48"/>
      </g>
     </g>
    </g>
    <g id="ytick_6">
     <g id="line2d_21">
      <path clip-path="url(#p6dfaa88f3a)" d="M 138.24 166.330242 
L 995.328 166.330242 
" style="fill:none;stroke:#ffffff;stroke-linecap:square;stroke-width:0.8;"/>
     </g>
     <g id="line2d_22">
      <g>
       <use style="fill:#555555;stroke:#555555;stroke-width:0.8;" x="138.24" xlink:href="#m0162441b8d" y="166.330242"/>
      </g>
     </g>
     <g id="text_12">
      <!-- 250 -->
      <g style="fill:#555555;" transform="translate(112.1525 170.129461)scale(0.1 -0.1)">
       <use xlink:href="#DejaVuSans-50"/>
       <use x="63.623047" xlink:href="#DejaVuSans-53"/>
       <use x="127.246094" xlink:href="#DejaVuSans-48"/>
      </g>
     </g>
    </g>
    <g id="ytick_7">
     <g id="line2d_23">
      <path clip-path="url(#p6dfaa88f3a)" d="M 138.24 100.238451 
L 995.328 100.238451 
" style="fill:none;stroke:#ffffff;stroke-linecap:square;stroke-width:0.8;"/>
     </g>
     <g id="line2d_24">
      <g>
       <use style="fill:#555555;stroke:#555555;stroke-width:0.8;" x="138.24" xlink:href="#m0162441b8d" y="100.238451"/>
      </g>
     </g>
     <g id="text_13">
      <!-- 300 -->
      <defs>
       <path d="M 40.578125 39.3125 
Q 47.65625 37.796875 51.625 33 
Q 55.609375 28.21875 55.609375 21.1875 
Q 55.609375 10.40625 48.1875 4.484375 
Q 40.765625 -1.421875 27.09375 -1.421875 
Q 22.515625 -1.421875 17.65625 -0.515625 
Q 12.796875 0.390625 7.625 2.203125 
L 7.625 11.71875 
Q 11.71875 9.328125 16.59375 8.109375 
Q 21.484375 6.890625 26.8125 6.890625 
Q 36.078125 6.890625 40.9375 10.546875 
Q 45.796875 14.203125 45.796875 21.1875 
Q 45.796875 27.640625 41.28125 31.265625 
Q 36.765625 34.90625 28.71875 34.90625 
L 20.21875 34.90625 
L 20.21875 43.015625 
L 29.109375 43.015625 
Q 36.375 43.015625 40.234375 45.921875 
Q 44.09375 48.828125 44.09375 54.296875 
Q 44.09375 59.90625 40.109375 62.90625 
Q 36.140625 65.921875 28.71875 65.921875 
Q 24.65625 65.921875 20.015625 65.03125 
Q 15.375 64.15625 9.8125 62.3125 
L 9.8125 71.09375 
Q 15.4375 72.65625 20.34375 73.4375 
Q 25.25 74.21875 29.59375 74.21875 
Q 40.828125 74.21875 47.359375 69.109375 
Q 53.90625 64.015625 53.90625 55.328125 
Q 53.90625 49.265625 50.4375 45.09375 
Q 46.96875 40.921875 40.578125 39.3125 
z
" id="DejaVuSans-51"/>
      </defs>
      <g style="fill:#555555;" transform="translate(112.1525 104.03767)scale(0.1 -0.1)">
       <use xlink:href="#DejaVuSans-51"/>
       <use x="63.623047" xlink:href="#DejaVuSans-48"/>
       <use x="127.246094" xlink:href="#DejaVuSans-48"/>
      </g>
     </g>
    </g>
    <g id="text_14">
     <!-- Voltaje -->
     <defs>
      <path d="M 28.609375 0 
L 0.78125 72.90625 
L 11.078125 72.90625 
L 34.1875 11.53125 
L 57.328125 72.90625 
L 67.578125 72.90625 
L 39.796875 0 
z
" id="DejaVuSans-86"/>
      <path d="M 30.609375 48.390625 
Q 23.390625 48.390625 19.1875 42.75 
Q 14.984375 37.109375 14.984375 27.296875 
Q 14.984375 17.484375 19.15625 11.84375 
Q 23.34375 6.203125 30.609375 6.203125 
Q 37.796875 6.203125 41.984375 11.859375 
Q 46.1875 17.53125 46.1875 27.296875 
Q 46.1875 37.015625 41.984375 42.703125 
Q 37.796875 48.390625 30.609375 48.390625 
z
M 30.609375 56 
Q 42.328125 56 49.015625 48.375 
Q 55.71875 40.765625 55.71875 27.296875 
Q 55.71875 13.875 49.015625 6.21875 
Q 42.328125 -1.421875 30.609375 -1.421875 
Q 18.84375 -1.421875 12.171875 6.21875 
Q 5.515625 13.875 5.515625 27.296875 
Q 5.515625 40.765625 12.171875 48.375 
Q 18.84375 56 30.609375 56 
z
" id="DejaVuSans-111"/>
      <path d="M 9.421875 75.984375 
L 18.40625 75.984375 
L 18.40625 0 
L 9.421875 0 
z
" id="DejaVuSans-108"/>
      <path d="M 9.421875 54.6875 
L 18.40625 54.6875 
L 18.40625 -0.984375 
Q 18.40625 -11.421875 14.421875 -16.109375 
Q 10.453125 -20.796875 1.609375 -20.796875 
L -1.8125 -20.796875 
L -1.8125 -13.1875 
L 0.59375 -13.1875 
Q 5.71875 -13.1875 7.5625 -10.8125 
Q 9.421875 -8.453125 9.421875 -0.984375 
z
M 9.421875 75.984375 
L 18.40625 75.984375 
L 18.40625 64.59375 
L 9.421875 64.59375 
z
" id="DejaVuSans-106"/>
     </defs>
     <g style="fill:#555555;" transform="translate(105.656875 314.24895)rotate(-90)scale(0.12 -0.12)">
      <use xlink:href="#DejaVuSans-86"/>
      <use x="68.298828" xlink:href="#DejaVuSans-111"/>
      <use x="129.480469" xlink:href="#DejaVuSans-108"/>
      <use x="157.263672" xlink:href="#DejaVuSans-116"/>
      <use x="196.472656" xlink:href="#DejaVuSans-97"/>
      <use x="257.751953" xlink:href="#DejaVuSans-106"/>
      <use x="285.535156" xlink:href="#DejaVuSans-101"/>
     </g>
    </g>
   </g>
   <g id="line2d_25">
    <path clip-path="url(#p6dfaa88f3a)" d="M 307.060364 517.1256 
L 307.060364 69.7248 
" style="fill:none;stroke:#c0c0c0;stroke-dasharray:5.55,2.4;stroke-dashoffset:0;stroke-width:1.5;"/>
   </g>
   <g id="line2d_26">
    <path clip-path="url(#p6dfaa88f3a)" d="M 436.922182 517.1256 
L 436.922182 69.7248 
" style="fill:none;stroke:#c0c0c0;stroke-dasharray:5.55,2.4;stroke-dashoffset:0;stroke-width:1.5;"/>
   </g>
   <g id="line2d_27">
    <path clip-path="url(#p6dfaa88f3a)" d="M 436.922182 517.1256 
L 436.922182 69.7248 
" style="fill:none;stroke:#c0c0c0;stroke-dasharray:5.55,2.4;stroke-dashoffset:0;stroke-width:1.5;"/>
   </g>
   <g id="line2d_28">
    <path clip-path="url(#p6dfaa88f3a)" d="M 566.784 517.1256 
L 566.784 69.7248 
" style="fill:none;stroke:#c0c0c0;stroke-dasharray:5.55,2.4;stroke-dashoffset:0;stroke-width:1.5;"/>
   </g>
   <g id="line2d_29">
    <path clip-path="url(#p6dfaa88f3a)" d="M 696.645818 517.1256 
L 696.645818 69.7248 
" style="fill:none;stroke:#c0c0c0;stroke-dasharray:5.55,2.4;stroke-dashoffset:0;stroke-width:1.5;"/>
   </g>
   <g id="line2d_30">
    <path clip-path="url(#p6dfaa88f3a)" d="M 826.507636 517.1256 
L 826.507636 69.7248 
" style="fill:none;stroke:#c0c0c0;stroke-dasharray:5.55,2.4;stroke-dashoffset:0;stroke-width:1.5;"/>
   </g>
   <g id="line2d_31">
    <path clip-path="url(#p6dfaa88f3a)" d="M 956.369455 517.1256 
L 956.369455 69.7248 
" style="fill:none;stroke:#c0c0c0;stroke-dasharray:5.55,2.4;stroke-dashoffset:0;stroke-width:1.5;"/>
   </g>
   <g id="line2d_32">
    <path clip-path="url(#p6dfaa88f3a)" d="M 177.198545 496.7892 
L 178.661777 496.7892 
L 180.125009 495.771602 
L 181.588241 493.792668 
L 182.319857 492.622951 
L 183.051472 491.333067 
L 185.977936 484.491195 
L 187.07536 481.775284 
L 187.806976 480.245067 
L 188.538592 478.474515 
L 190.367631 474.709054 
L 191.465055 472.353644 
L 192.562479 470.478902 
L 194.025711 467.899134 
L 197.68379 462.050549 
L 200.610254 459.414518 
L 201.341869 459.44647 
L 202.073485 459.718755 
L 203.170909 460.487684 
L 203.902525 461.360805 
L 207.194796 464.749094 
L 207.560604 464.885237 
L 208.29222 465.397856 
L 208.658028 465.8945 
L 210.852876 466.711357 
L 211.218684 467.208001 
L 211.9503 467.840787 
L 214.876763 470.732433 
L 215.242571 470.868576 
L 215.608379 471.245053 
L 215.974187 471.381195 
L 216.705803 471.893815 
L 217.071611 472.390458 
L 218.169035 473.159388 
L 218.534843 473.175363 
L 220.72969 474.713222 
L 221.095498 474.729198 
L 221.461306 474.865341 
L 224.753577 477.292295 
L 225.119385 477.788939 
L 225.851001 478.421725 
L 227.314233 479.807465 
L 228.045849 480.199917 
L 228.411657 480.095726 
L 228.777465 480.111702 
L 229.143273 480.007511 
L 229.509081 480.263821 
L 229.874889 480.279797 
L 230.606504 480.552083 
L 231.33812 480.944535 
L 232.435544 481.352964 
L 233.898776 482.258036 
L 234.630392 482.530321 
L 234.9962 482.42613 
L 236.825239 483.106845 
L 237.191047 483.002654 
L 237.556855 483.01863 
L 237.922663 482.794272 
L 238.288471 482.930415 
L 238.654279 482.826224 
L 239.020087 482.8422 
L 239.385895 482.738009 
L 240.117511 482.769961 
L 240.483319 482.906103 
L 240.849127 482.922079 
L 241.214935 483.178389 
L 242.312359 483.226317 
L 243.043974 483.859103 
L 243.77559 484.49189 
L 244.141398 484.748199 
L 244.507206 484.764175 
L 247.43367 486.694486 
L 248.165286 486.726438 
L 248.896901 486.998724 
L 249.628517 487.030676 
L 249.994325 487.166819 
L 250.725941 486.958437 
L 251.091749 486.734079 
L 251.457557 486.870222 
L 252.189173 486.902174 
L 252.554981 487.038316 
L 252.920789 487.054292 
L 254.018213 487.462721 
L 254.38402 487.35853 
L 255.115636 487.630816 
L 255.481444 487.646792 
L 256.21306 487.919077 
L 256.944676 487.951029 
L 258.407908 488.495601 
L 259.139524 488.888053 
L 260.236948 489.296482 
L 260.968563 489.809101 
L 261.334371 489.825077 
L 262.431795 490.233506 
L 262.797603 490.249481 
L 263.529219 490.521767 
L 264.260835 490.91422 
L 264.626643 490.930196 
L 264.992451 491.066339 
L 266.089875 491.715101 
L 266.455682 491.851244 
L 267.187298 492.243696 
L 267.553106 492.379839 
L 267.918914 492.395815 
L 269.016338 493.044577 
L 269.382146 493.18072 
L 270.113762 493.212672 
L 270.47957 493.348815 
L 270.845378 493.244624 
L 271.576994 493.276576 
L 271.942802 493.412719 
L 272.308609 493.428695 
L 272.674417 493.324504 
L 273.040225 493.460647 
L 273.406033 493.356456 
L 273.771841 493.492598 
L 274.503457 493.52455 
L 275.600881 493.932979 
L 277.064113 493.516215 
L 277.795729 493.548167 
L 278.161536 493.443976 
L 279.990576 493.523856 
L 281.088 493.932284 
L 281.819616 493.964236 
L 282.551232 494.236522 
L 282.91704 494.252498 
L 283.648656 494.524783 
L 284.014464 494.781093 
L 285.111887 494.829021 
L 285.843503 495.221474 
L 286.209311 495.357616 
L 286.575119 495.253425 
L 286.940927 495.389568 
L 288.038351 495.437496 
L 289.135775 495.845925 
L 289.867391 495.877877 
L 290.599006 496.150162 
L 292.428046 496.230042 
L 292.793854 496.005684 
L 293.159662 496.02166 
L 293.891278 496.414113 
L 294.257086 496.309922 
L 294.622894 496.446064 
L 294.988702 496.46204 
L 295.35451 496.598183 
L 295.720318 496.614159 
L 296.086125 496.750302 
L 297.183549 496.7892 
L 298.646781 496.501633 
L 299.012589 496.637776 
L 299.378397 496.533585 
L 300.110013 496.7892 
L 306.694556 496.7892 
L 306.694556 496.7892 
" style="fill:none;stroke:#e24a33;stroke-linecap:square;stroke-width:1.5;"/>
   </g>
   <g id="line2d_33">
    <path clip-path="url(#p6dfaa88f3a)" d="M 307.060364 495.15493 
L 307.426172 495.042892 
L 307.79198 495.051021 
L 308.157787 495.299484 
L 308.889403 495.315742 
L 309.255211 495.564205 
L 309.621019 495.572333 
L 309.986827 495.340129 
L 310.718443 495.356387 
L 311.084251 495.244349 
L 312.913291 495.284993 
L 313.279099 495.172955 
L 313.644907 495.181084 
L 314.010714 495.429547 
L 315.108138 495.453934 
L 315.473946 495.58223 
L 316.205562 495.598487 
L 316.937178 495.855079 
L 317.302986 495.863208 
L 317.668794 495.991504 
L 318.40041 496.007762 
L 319.132026 496.264353 
L 319.497834 496.152315 
L 320.595257 496.176702 
L 320.961065 496.064664 
L 321.692681 496.321256 
L 322.058489 496.329385 
L 322.790105 496.706143 
L 323.521721 496.7892 
L 332.666919 496.7892 
L 333.032727 496.573253 
L 333.398535 496.701549 
L 333.764343 496.589511 
L 335.593383 495.548654 
L 335.959191 495.436616 
L 336.690807 494.852039 
L 339.251462 493.106438 
L 339.983078 492.521862 
L 340.348886 492.409824 
L 340.714694 492.417953 
L 341.812118 492.081839 
L 342.177926 491.849634 
L 342.543734 491.857763 
L 343.641157 491.521649 
L 345.104389 490.472663 
L 346.201813 489.535714 
L 346.933429 488.951138 
L 348.396661 487.661818 
L 349.128277 487.317575 
L 349.494085 487.205537 
L 350.2257 486.861294 
L 351.323124 486.52518 
L 352.05474 486.541438 
L 352.420548 486.669734 
L 352.786356 486.677863 
L 353.152164 486.806159 
L 353.88378 486.822416 
L 354.249588 486.950712 
L 354.615396 486.958841 
L 356.078627 487.832525 
L 356.444435 487.720487 
L 356.810243 487.848783 
L 357.541859 487.624707 
L 358.639283 487.649094 
L 360.102515 487.200942 
L 360.468323 487.329238 
L 360.834131 487.2172 
L 361.199939 487.225329 
L 361.565746 487.353625 
L 361.931554 487.361754 
L 362.297362 487.249716 
L 364.126402 487.891195 
L 364.49221 487.899324 
L 365.589634 488.524545 
L 365.955442 488.652841 
L 366.687058 489.0296 
L 367.052866 489.037728 
L 367.418673 489.166024 
L 368.516097 489.791246 
L 368.881905 489.799375 
L 369.247713 489.687337 
L 369.613521 489.695466 
L 369.979329 489.823761 
L 370.710945 489.840019 
L 371.076753 489.968315 
L 372.174177 489.632201 
L 372.905793 489.888793 
L 374.369024 489.921309 
L 374.734832 490.049604 
L 376.563872 491.171751 
L 376.92968 491.17988 
L 378.75872 492.302027 
L 379.856143 491.725579 
L 380.221951 491.733708 
L 380.587759 491.62167 
L 381.319375 491.637928 
L 382.416799 491.06148 
L 382.782607 491.069609 
L 383.880031 491.454497 
L 384.611647 491.470755 
L 384.977455 491.59905 
L 385.343262 491.487013 
L 385.70907 491.615308 
L 386.074878 491.623437 
L 386.440686 491.751733 
L 386.806494 491.639695 
L 387.172302 491.647824 
L 388.635534 491.199672 
L 389.001342 490.967467 
L 389.36715 490.975596 
L 390.098766 490.75152 
L 390.464574 490.519316 
L 390.830382 490.527445 
L 391.19619 490.415407 
L 391.927805 490.431664 
L 392.659421 490.207589 
L 393.025229 490.456051 
L 393.391037 490.46418 
L 393.756845 490.592476 
L 394.488461 490.969235 
L 395.585885 491.354122 
L 395.951693 491.362251 
L 396.683309 491.859176 
L 397.049117 491.747139 
L 397.414924 491.875434 
L 397.780732 491.883563 
L 398.14654 491.651358 
L 398.512348 491.779654 
L 398.878156 491.667616 
L 399.243964 491.675745 
L 399.97558 491.451669 
L 400.707196 491.107427 
L 401.80462 490.771313 
L 402.170428 490.899608 
L 403.267851 490.563495 
L 403.633659 490.69179 
L 404.365275 491.068549 
L 405.462699 491.453436 
L 405.828507 491.461565 
L 406.194315 491.349527 
L 406.560123 491.477823 
L 407.291739 491.854582 
L 407.657547 491.622377 
L 408.389163 491.638635 
L 408.754971 491.526597 
L 409.120778 491.77506 
L 409.486586 491.783189 
L 410.218202 492.03978 
L 410.58401 491.927742 
L 411.315626 491.944 
L 412.047242 492.320759 
L 412.41305 492.328888 
L 412.778858 492.57735 
L 413.144666 492.345146 
L 414.24209 492.369532 
L 414.607898 492.617995 
L 415.705321 492.642382 
L 416.071129 492.530344 
L 416.802745 492.546602 
L 417.534361 492.803193 
L 417.900169 493.171823 
L 418.265977 493.300119 
L 418.631785 493.308248 
L 419.363401 493.564839 
L 419.729209 493.572968 
L 420.460825 493.82956 
L 420.826633 493.837689 
L 421.19244 493.965985 
L 421.558248 493.974114 
L 421.924056 493.741909 
L 422.289864 493.750038 
L 422.655672 493.638 
L 423.753096 493.662387 
L 424.118904 493.910849 
L 424.85052 493.927107 
L 425.582136 494.183699 
L 425.947944 494.191828 
L 426.67956 494.44842 
L 427.776983 494.472806 
L 428.142791 494.360768 
L 428.874407 494.377026 
L 429.240215 494.144821 
L 429.606023 494.15295 
L 431.435063 494.79443 
L 431.800871 495.042892 
L 432.166679 495.051021 
L 432.532487 495.179317 
L 432.898294 494.947112 
L 433.264102 495.075408 
L 433.62991 495.083537 
L 433.995718 495.211833 
L 434.361526 495.219962 
L 434.727334 495.348258 
L 435.093142 495.356387 
L 435.45895 495.484682 
L 435.824758 495.492811 
L 436.556374 495.749403 
L 436.556374 495.749403 
" style="fill:none;stroke:#348abd;stroke-linecap:square;stroke-width:1.5;"/>
   </g>
   <g id="line2d_34">
    <path clip-path="url(#p6dfaa88f3a)" d="M 436.922182 496.692286 
L 437.653798 496.468585 
L 438.385414 496.7892 
L 440.580261 496.535118 
L 441.311877 496.551752 
L 441.677685 496.680235 
L 442.409301 496.336368 
L 442.775109 496.344684 
L 443.140917 496.232834 
L 443.506725 496.241151 
L 443.872533 496.489801 
L 444.238341 496.498118 
L 444.604149 496.386268 
L 445.335764 496.402901 
L 445.701572 495.93055 
L 446.433188 496.187517 
L 446.798996 496.195834 
L 447.530612 496.452801 
L 447.89642 496.220783 
L 448.262228 496.2291 
L 448.628036 496.47775 
L 448.993844 496.486067 
L 449.359652 496.374217 
L 449.72546 496.7892 
L 457.041618 496.7892 
L 457.773234 496.565499 
L 458.870658 495.989615 
L 459.968082 495.654064 
L 460.699698 495.310197 
L 461.065506 495.318513 
L 461.797122 495.094813 
L 462.16293 495.103129 
L 462.528738 494.991279 
L 462.894545 495.119763 
L 463.626161 495.136396 
L 463.991969 495.024546 
L 464.357777 495.032862 
L 464.723585 494.921012 
L 465.455201 495.177979 
L 465.821009 495.066129 
L 466.552625 495.082762 
L 467.284241 494.859062 
L 468.747472 494.892328 
L 469.11328 494.780478 
L 469.479088 494.548461 
L 470.210704 494.805428 
L 470.576512 494.813745 
L 470.94232 494.701894 
L 471.308128 494.710211 
L 471.673936 494.358027 
L 473.137168 494.391293 
L 473.502976 494.519777 
L 473.868784 494.407927 
L 474.234592 494.416243 
L 474.600399 494.544727 
L 474.966207 494.432877 
L 475.332015 494.441193 
L 476.063631 494.69816 
L 476.429439 494.706477 
L 476.795247 494.594627 
L 477.892671 494.619577 
L 478.624287 494.155542 
L 478.990095 494.284026 
L 479.355903 494.292342 
L 479.721711 494.540993 
L 480.087519 494.429143 
L 480.453327 494.437459 
L 480.819134 494.565943 
L 481.184942 494.574259 
L 481.55075 494.462409 
L 482.648174 495.088193 
L 483.745598 495.113143 
L 484.477214 495.490277 
L 484.843022 495.618761 
L 485.20883 495.627078 
L 485.574638 495.875728 
L 485.940446 495.763878 
L 486.306254 495.772194 
L 486.672061 495.660344 
L 487.403677 495.917311 
L 488.501101 495.58176 
L 489.232717 495.598394 
L 489.598525 495.486543 
L 489.964333 495.49486 
L 490.330141 495.623344 
L 490.695949 495.63166 
L 491.061757 495.51981 
L 491.427565 495.528127 
L 491.793373 495.776777 
L 492.524988 495.553076 
L 492.890796 495.561393 
L 493.256604 495.689877 
L 494.354028 496.676162 
L 495.085644 496.7892 
L 566.418192 496.7892 
L 566.418192 496.7892 
" style="fill:none;stroke:#988ed5;stroke-linecap:square;stroke-width:1.5;"/>
   </g>
   <g id="line2d_35">
    <path clip-path="url(#p6dfaa88f3a)" d="M 566.784 493.89345 
L 567.149808 494.415478 
L 567.515616 494.697173 
L 567.881424 495.219201 
L 568.61304 495.542256 
L 569.344656 496.225811 
L 570.076271 496.7892 
L 570.807887 496.751754 
L 571.173695 495.471279 
L 571.539503 493.229469 
L 571.905311 489.185155 
L 572.271119 483.458504 
L 573.002735 465.396025 
L 573.734351 438.921862 
L 574.465967 403.91585 
L 577.758238 226.200759 
L 578.855662 184.386595 
L 579.953086 153.02695 
L 580.684702 137.487975 
L 581.416318 125.43384 
L 582.513741 112.700064 
L 583.245357 106.654274 
L 583.976973 102.29082 
L 584.708589 99.249202 
L 585.806013 95.64811 
L 586.537629 94.168661 
L 586.903437 93.969688 
L 587.635052 92.970907 
L 589.098284 91.333846 
L 591.65894 90.0612 
L 592.024748 90.102561 
L 592.390556 90.264088 
L 592.756364 90.786116 
L 593.122172 91.788812 
L 593.853787 96.437875 
L 594.585403 104.09111 
L 595.317019 114.748518 
L 596.414443 135.661472 
L 598.243483 172.519178 
L 599.706714 197.679334 
L 601.169946 218.753816 
L 602.633178 236.944292 
L 604.09641 252.37093 
L 605.925449 269.641431 
L 609.217721 296.450393 
L 611.412569 311.959752 
L 613.973224 327.750805 
L 616.53388 341.739355 
L 620.557767 362.74286 
L 622.386807 370.880678 
L 624.581654 378.699355 
L 628.239734 390.889317 
L 630.434581 396.905491 
L 630.800389 397.547686 
L 631.532005 399.312743 
L 635.190085 407.05653 
L 638.848164 417.32382 
L 639.57978 419.329212 
L 641.408819 423.98219 
L 642.140435 425.747247 
L 642.872051 427.271971 
L 643.237859 427.793999 
L 643.969475 429.198556 
L 645.066899 430.764641 
L 645.432707 431.527003 
L 645.798515 431.928864 
L 652.01725 442.846179 
L 652.748866 444.370903 
L 655.675329 450.229465 
L 656.772753 452.035883 
L 659.699216 456.332275 
L 661.162448 458.780888 
L 663.723104 462.314918 
L 666.283759 465.127947 
L 667.015375 465.571169 
L 667.381183 465.852863 
L 668.478607 467.29878 
L 669.941839 469.026392 
L 670.307647 468.947586 
L 672.136686 470.836725 
L 673.23411 471.801975 
L 673.965726 472.605698 
L 674.697342 473.890088 
L 676.526382 476.019561 
L 679.818653 480.597647 
L 680.916077 481.923398 
L 682.013501 483.369315 
L 683.110924 484.334565 
L 683.476732 484.736427 
L 683.84254 484.897954 
L 684.574156 485.58151 
L 685.305772 486.024731 
L 687.134812 486.952536 
L 689.329659 488.762869 
L 692.621931 492.259453 
L 693.353547 492.943008 
L 694.085163 493.626564 
L 696.28001 495.196563 
L 696.28001 495.196563 
" style="fill:none;stroke:#777777;stroke-linecap:square;stroke-width:1.5;"/>
   </g>
   <g id="line2d_36">
    <path clip-path="url(#p6dfaa88f3a)" d="M 696.645818 485.775784 
L 697.011626 487.09026 
L 697.377434 486.842565 
L 697.743242 489.599043 
L 698.10905 489.471515 
L 698.474858 491.026324 
L 698.840666 490.658463 
L 699.206474 491.852771 
L 699.572282 494.489082 
L 699.93809 492.679218 
L 700.303898 493.75336 
L 700.669706 490.62166 
L 701.035513 491.455467 
L 701.401321 491.087606 
L 701.767129 491.200412 
L 702.132937 492.394721 
L 702.498745 492.988194 
L 702.864553 496.345507 
L 703.230361 495.977646 
L 703.596169 496.7892 
L 704.327785 495.234562 
L 704.693593 494.866701 
L 705.059401 492.335835 
L 705.425209 491.246973 
L 705.791017 487.514438 
L 706.156825 487.02641 
L 706.522633 485.45688 
L 706.88844 485.81002 
L 707.254248 486.763994 
L 707.620056 486.636467 
L 707.985864 491.075281 
L 708.351672 492.63009 
L 708.71748 495.987403 
L 709.083288 496.7892 
L 710.54652 496.7892 
L 710.912328 493.539901 
L 711.278136 493.17204 
L 711.643944 489.920173 
L 712.009752 490.153146 
L 712.37556 488.102948 
L 712.741367 488.456088 
L 713.107175 489.89073 
L 713.472983 489.643036 
L 713.838791 492.639847 
L 714.204599 490.58965 
L 714.570407 492.745293 
L 714.936215 493.819434 
L 715.302023 490.928068 
L 715.667831 493.804713 
L 716.033639 491.754515 
L 716.399447 494.150492 
L 716.765255 494.022965 
L 717.131063 494.015604 
L 717.496871 494.248577 
L 717.862679 490.516043 
L 718.228487 492.91202 
L 718.594294 492.784493 
L 718.960102 492.777132 
L 719.32591 496.7892 
L 720.423334 496.7892 
L 721.520758 492.365107 
L 722.252374 496.075559 
L 722.618182 496.7892 
L 723.349798 496.7892 
L 724.081414 492.073249 
L 724.447222 485.817209 
L 724.813029 484.247679 
L 725.910453 468.724068 
L 727.007877 441.183767 
L 728.105301 419.892145 
L 728.471109 414.957942 
L 729.568533 405.562842 
L 729.934341 402.91181 
L 730.665956 395.086241 
L 731.031764 393.036043 
L 731.397572 386.90017 
L 731.76338 387.012977 
L 732.129188 383.400609 
L 732.494996 383.753749 
L 733.59242 377.002321 
L 733.958228 372.668952 
L 734.324036 371.94059 
L 735.055652 371.445202 
L 735.42146 374.56218 
L 735.787268 374.674986 
L 736.518883 372.016593 
L 737.250499 366.354028 
L 737.616307 365.625666 
L 737.982115 366.699808 
L 738.347923 370.05712 
L 738.713731 369.448925 
L 739.079539 371.604568 
L 739.811155 370.268011 
L 740.176963 372.423655 
L 740.542771 372.536461 
L 741.274387 377.328415 
L 741.640195 378.042056 
L 742.006003 376.352359 
L 742.37181 375.864331 
L 743.835042 366.46187 
L 744.20085 365.973842 
L 744.566658 364.644646 
L 744.932466 364.757452 
L 745.298274 366.913095 
L 745.664082 366.184733 
L 746.02989 370.022713 
L 746.395698 368.453183 
L 746.761506 369.527324 
L 747.127314 372.884637 
L 747.493122 374.799946 
L 747.85893 380.079929 
L 748.956353 388.349363 
L 749.322161 386.899999 
L 749.687969 390.137145 
L 750.053777 389.168449 
L 750.419585 392.525761 
L 750.785393 394.681405 
L 751.151201 393.832876 
L 751.517009 395.628019 
L 751.882817 393.21732 
L 752.248625 394.291461 
L 752.614433 394.163934 
L 752.980241 395.718743 
L 753.346049 400.03739 
L 753.711857 401.832533 
L 754.077665 406.872182 
L 754.443472 408.547158 
L 754.80928 413.226306 
L 755.175088 413.81978 
L 755.540896 415.374589 
L 755.906704 417.890733 
L 756.272512 415.720368 
L 756.63832 418.837347 
L 757.004128 418.469486 
L 757.369936 420.384795 
L 757.735744 421.098436 
L 758.101552 420.970908 
L 758.46736 423.727386 
L 758.833168 420.475519 
L 759.198976 423.952999 
L 759.564784 423.945638 
L 759.930592 423.097109 
L 760.296399 427.29559 
L 760.662207 426.447061 
L 761.028015 428.722871 
L 761.393823 428.595344 
L 761.759631 429.669485 
L 762.125439 431.344461 
L 762.491247 431.697601 
L 762.857055 436.977584 
L 763.222863 436.729889 
L 763.588671 439.967035 
L 763.954479 441.521844 
L 764.320287 440.553148 
L 764.686095 441.627289 
L 765.051903 438.85609 
L 765.417711 439.810065 
L 765.783519 438.240534 
L 766.515134 439.427482 
L 766.880942 438.578953 
L 767.24675 442.056432 
L 767.612558 440.96757 
L 767.978366 441.440877 
L 768.344174 443.59652 
L 768.709982 444.910995 
L 769.07579 449.34981 
L 769.441598 450.303784 
L 769.807406 453.420763 
L 770.173214 454.134403 
L 770.539022 453.766542 
L 770.90483 455.681852 
L 771.270638 452.309818 
L 772.002254 455.900104 
L 772.733869 456.486217 
L 773.099677 455.757855 
L 773.465485 454.548825 
L 773.831293 450.936458 
L 774.197101 450.087929 
L 774.562909 448.638565 
L 774.928717 448.150537 
L 775.294525 450.666681 
L 775.660333 450.659321 
L 776.391949 453.168104 
L 776.757757 453.641411 
L 777.123565 454.955886 
L 777.489373 455.789694 
L 777.855181 459.747841 
L 778.220988 460.821982 
L 778.586796 463.938961 
L 778.952604 464.532434 
L 779.68422 467.642052 
L 780.050028 468.355693 
L 780.415836 468.588666 
L 781.147452 467.252109 
L 781.51326 467.004415 
L 781.879068 464.713883 
L 782.244876 464.466189 
L 782.610684 463.016825 
L 782.976492 463.249798 
L 783.3423 462.281103 
L 783.708108 462.273742 
L 784.073915 462.987383 
L 784.439723 463.220356 
L 784.805531 465.375999 
L 785.171339 466.08964 
L 786.268763 472.075903 
L 787.000379 473.142683 
L 787.366187 472.294154 
L 787.731995 471.806126 
L 788.463611 470.229235 
L 790.29265 464.304254 
L 790.658458 464.537227 
L 791.024266 464.529867 
L 792.487498 469.667601 
L 792.853306 472.183745 
L 793.219114 472.777219 
L 793.584922 474.091694 
L 793.95073 474.925501 
L 794.316538 473.716472 
L 794.682346 474.91078 
L 795.048154 474.062251 
L 795.413962 475.376726 
L 795.77977 475.369366 
L 796.145577 475.001504 
L 796.511385 475.114311 
L 796.877193 473.304446 
L 797.243001 472.335751 
L 797.608809 472.208223 
L 797.974617 472.68153 
L 798.340425 475.438008 
L 798.706233 476.512149 
L 799.072041 477.22579 
L 799.437849 477.458763 
L 799.803657 475.408565 
L 800.169465 475.281038 
L 800.535273 474.072008 
L 800.901081 473.463813 
L 801.266889 475.379123 
L 801.632697 474.29026 
L 801.998504 475.604735 
L 802.364312 474.275539 
L 802.73012 474.268178 
L 803.095928 474.020484 
L 803.461736 474.613957 
L 804.55916 478.917884 
L 804.924968 481.554195 
L 805.290776 482.628336 
L 805.656584 484.423479 
L 806.3882 485.009592 
L 806.754008 485.002231 
L 807.119816 484.394036 
L 807.485624 483.06484 
L 807.851431 482.456645 
L 808.217239 480.646781 
L 808.583047 481.120088 
L 808.948855 479.790891 
L 809.314663 479.78353 
L 809.680471 479.896337 
L 810.046279 479.888976 
L 810.412087 481.323618 
L 810.777895 479.27342 
L 811.143703 480.708062 
L 811.509511 480.220034 
L 811.875319 479.371505 
L 812.241127 481.166648 
L 812.606935 480.318119 
L 812.972743 481.872928 
L 813.338551 481.985734 
L 813.704359 482.218707 
L 814.070166 482.692014 
L 814.435974 480.52165 
L 814.801782 482.196625 
L 815.533398 480.980235 
L 815.899206 483.015712 
L 816.265014 482.28735 
L 816.630822 483.842159 
L 816.99663 483.834798 
L 817.362438 483.34677 
L 817.728246 483.69991 
L 818.094054 481.409378 
L 818.459862 482.243186 
L 818.82567 481.755158 
L 819.191478 481.62763 
L 819.557286 484.384108 
L 819.923093 484.617081 
L 820.288901 486.412224 
L 820.654709 486.765364 
L 821.020517 486.037002 
L 821.386325 486.510309 
L 821.752133 484.700445 
L 822.117941 485.053585 
L 822.483749 485.647059 
L 822.849557 485.279197 
L 823.215365 487.314674 
L 823.581173 486.586312 
L 823.946981 487.059619 
L 824.312789 486.932091 
L 824.678597 485.723062 
L 825.044405 486.91737 
L 825.410213 484.987339 
L 825.77602 486.662315 
L 826.141828 487.015455 
L 826.141828 487.015455 
" style="fill:none;stroke:#fbc15e;stroke-linecap:square;stroke-width:1.5;"/>
   </g>
   <g id="line2d_37">
    <path clip-path="url(#p6dfaa88f3a)" d="M 826.507636 494.495011 
L 826.873444 494.503791 
L 827.239252 494.632738 
L 827.60506 494.881852 
L 827.970868 494.770465 
L 828.336676 494.899412 
L 828.702484 494.667858 
L 830.531524 494.711759 
L 831.26314 494.969653 
L 831.994755 494.987213 
L 832.360563 494.875826 
L 832.726371 494.884606 
L 833.457987 495.262667 
L 834.189603 495.280227 
L 834.555411 495.168841 
L 834.921219 495.177621 
L 835.287027 495.066234 
L 835.652835 495.075014 
L 836.018643 495.203961 
L 836.750259 495.822356 
L 837.116067 495.590802 
L 837.481875 495.599582 
L 837.847682 495.848696 
L 838.21349 495.857476 
L 839.310914 496.244317 
L 839.676722 496.253097 
L 840.04253 496.382044 
L 840.774146 496.159271 
L 841.139954 496.528551 
L 841.87157 496.546112 
L 842.603186 496.7892 
L 843.334802 496.701399 
L 844.066417 496.7892 
L 846.992881 496.7892 
L 847.358689 496.677813 
L 848.821921 495.871765 
L 849.187729 495.760379 
L 849.919344 495.177104 
L 850.65096 494.59383 
L 851.016768 494.482443 
L 853.211616 492.972954 
L 853.577424 492.621234 
L 854.30904 492.39846 
L 855.406464 491.583632 
L 857.235503 489.825029 
L 857.601311 489.713642 
L 859.430351 488.075206 
L 860.527775 487.380545 
L 860.893583 486.908658 
L 863.08843 485.399169 
L 863.454238 484.927281 
L 864.551662 484.352787 
L 864.91747 484.361567 
L 866.014894 483.306406 
L 866.380702 483.195019 
L 867.112318 482.611745 
L 867.478125 482.500358 
L 868.209741 481.67675 
L 869.307165 481.102256 
L 869.672973 481.231203 
L 870.404589 481.008429 
L 870.770397 481.137376 
L 871.502013 481.154936 
L 871.867821 481.524217 
L 872.965245 481.550557 
L 874.062668 481.937398 
L 875.5259 481.972519 
L 875.891708 481.861132 
L 877.35494 481.896252 
L 877.720748 481.664699 
L 878.086556 481.673479 
L 878.452364 481.802426 
L 879.18398 481.819986 
L 879.549787 482.0691 
L 879.915595 481.957713 
L 880.647211 481.975273 
L 881.378827 482.233167 
L 881.744635 482.602448 
L 882.110443 482.731395 
L 882.842059 483.34979 
L 885.768522 485.222534 
L 886.13433 485.351481 
L 886.865946 485.729542 
L 887.597562 485.747102 
L 887.96337 485.876049 
L 888.329178 485.884829 
L 888.694986 486.013776 
L 889.060794 486.503224 
L 889.426602 486.391837 
L 889.79241 486.520784 
L 890.158218 486.769898 
L 890.524026 486.418177 
L 890.889834 486.426957 
L 891.621449 486.805018 
L 892.718873 487.191859 
L 893.084681 487.080472 
L 893.450489 487.56992 
L 893.816297 487.5787 
L 894.182105 487.707647 
L 894.547913 488.197095 
L 895.279529 488.695323 
L 895.645337 488.704103 
L 896.742761 489.090944 
L 897.108569 489.099724 
L 897.474376 488.988337 
L 897.840184 489.117284 
L 899.303416 488.311236 
L 900.766648 488.346357 
L 901.132456 488.23497 
L 901.498264 488.24375 
L 901.864072 488.132363 
L 902.22988 488.501644 
L 902.961496 488.519204 
L 903.327303 488.648151 
L 903.693111 488.897265 
L 904.058919 488.785878 
L 904.424727 488.914825 
L 904.790535 488.923605 
L 905.156343 489.052552 
L 905.522151 488.941166 
L 905.887959 489.070113 
L 906.253767 488.718392 
L 906.985383 489.096453 
L 907.351191 488.985066 
L 907.716999 488.993846 
L 908.082807 489.122793 
L 908.448615 488.89124 
L 909.18023 488.9088 
L 909.546038 489.157914 
L 909.911846 489.046527 
L 910.277654 489.055307 
L 910.643462 488.703586 
L 911.00927 488.5922 
L 911.375078 488.60098 
L 911.740886 488.369426 
L 912.106694 488.738707 
L 912.83831 488.996601 
L 913.204118 489.005381 
L 913.569926 488.893994 
L 913.935734 489.022941 
L 915.764773 490.148344 
L 916.130581 489.796623 
L 916.496389 489.92557 
L 916.862197 489.814183 
L 918.325429 489.849304 
L 918.691237 489.737917 
L 919.057045 489.746697 
L 919.422853 489.63531 
L 920.154469 489.65287 
L 920.520277 489.541484 
L 920.886085 489.550264 
L 921.6177 489.808158 
L 921.983508 490.057272 
L 923.080932 490.083612 
L 923.44674 490.332726 
L 923.812548 490.221339 
L 925.641588 490.265239 
L 926.373204 489.922299 
L 926.739012 489.931079 
L 927.104819 490.060026 
L 927.470627 490.068806 
L 928.202243 490.3267 
L 928.568051 490.33548 
L 928.933859 490.464427 
L 929.665475 490.481988 
L 931.494515 491.60739 
L 932.226131 491.62495 
L 932.591939 491.753897 
L 933.323554 491.771457 
L 933.689362 491.900404 
L 934.05517 491.789018 
L 934.420978 491.797798 
L 934.786786 491.926745 
L 935.152594 491.695191 
L 935.518402 491.703971 
L 935.88421 491.832918 
L 936.250018 491.841698 
L 936.615826 491.970645 
L 937.347442 492.348706 
L 937.71325 492.357486 
L 938.444866 492.735547 
L 939.176481 492.753107 
L 939.542289 492.882054 
L 939.908097 492.890834 
L 940.273905 493.139948 
L 941.005521 492.917175 
L 941.737137 492.934735 
L 942.102945 492.823348 
L 942.834561 492.840908 
L 943.200369 492.969855 
L 943.566177 492.738302 
L 943.931985 492.867249 
L 944.297793 492.755862 
L 945.761024 493.27165 
L 946.858448 493.29799 
L 947.224256 493.186603 
L 947.590064 493.555884 
L 947.955872 493.564664 
L 948.687488 493.822558 
L 949.053296 493.711172 
L 949.784912 493.969065 
L 950.516528 494.347126 
L 950.882335 494.476073 
L 951.248143 494.725187 
L 951.613951 494.6138 
L 951.979759 494.622581 
L 953.077183 495.249755 
L 954.174607 495.276096 
L 954.540415 495.164709 
L 955.272031 495.182269 
L 956.003647 495.440163 
L 956.003647 495.440163 
" style="fill:none;stroke:#8eba42;stroke-linecap:square;stroke-width:1.5;"/>
   </g>
   <g id="patch_3">
    <path d="M 138.24 517.1256 
L 138.24 69.7248 
" style="fill:none;stroke:#ffffff;stroke-linecap:square;stroke-linejoin:miter;"/>
   </g>
   <g id="patch_4">
    <path d="M 995.328 517.1256 
L 995.328 69.7248 
" style="fill:none;stroke:#ffffff;stroke-linecap:square;stroke-linejoin:miter;"/>
   </g>
   <g id="patch_5">
    <path d="M 138.24 517.1256 
L 995.328 517.1256 
" style="fill:none;stroke:#ffffff;stroke-linecap:square;stroke-linejoin:miter;"/>
   </g>
   <g id="patch_6">
    <path d="M 138.24 69.7248 
L 995.328 69.7248 
" style="fill:none;stroke:#ffffff;stroke-linecap:square;stroke-linejoin:miter;"/>
   </g>
   <g id="text_15">
    <!-- Experimento concatenado -->
    <defs>
     <path d="M 9.8125 72.90625 
L 55.90625 72.90625 
L 55.90625 64.59375 
L 19.671875 64.59375 
L 19.671875 43.015625 
L 54.390625 43.015625 
L 54.390625 34.71875 
L 19.671875 34.71875 
L 19.671875 8.296875 
L 56.78125 8.296875 
L 56.78125 0 
L 9.8125 0 
z
" id="DejaVuSans-69"/>
     <path d="M 54.890625 54.6875 
L 35.109375 28.078125 
L 55.90625 0 
L 45.3125 0 
L 29.390625 21.484375 
L 13.484375 0 
L 2.875 0 
L 24.125 28.609375 
L 4.6875 54.6875 
L 15.28125 54.6875 
L 29.78125 35.203125 
L 44.28125 54.6875 
z
" id="DejaVuSans-120"/>
     <path d="M 18.109375 8.203125 
L 18.109375 -20.796875 
L 9.078125 -20.796875 
L 9.078125 54.6875 
L 18.109375 54.6875 
L 18.109375 46.390625 
Q 20.953125 51.265625 25.265625 53.625 
Q 29.59375 56 35.59375 56 
Q 45.5625 56 51.78125 48.09375 
Q 58.015625 40.1875 58.015625 27.296875 
Q 58.015625 14.40625 51.78125 6.484375 
Q 45.5625 -1.421875 35.59375 -1.421875 
Q 29.59375 -1.421875 25.265625 0.953125 
Q 20.953125 3.328125 18.109375 8.203125 
z
M 48.6875 27.296875 
Q 48.6875 37.203125 44.609375 42.84375 
Q 40.53125 48.484375 33.40625 48.484375 
Q 26.265625 48.484375 22.1875 42.84375 
Q 18.109375 37.203125 18.109375 27.296875 
Q 18.109375 17.390625 22.1875 11.75 
Q 26.265625 6.109375 33.40625 6.109375 
Q 40.53125 6.109375 44.609375 11.75 
Q 48.6875 17.390625 48.6875 27.296875 
z
" id="DejaVuSans-112"/>
     <path d="M 9.421875 54.6875 
L 18.40625 54.6875 
L 18.40625 0 
L 9.421875 0 
z
M 9.421875 75.984375 
L 18.40625 75.984375 
L 18.40625 64.59375 
L 9.421875 64.59375 
z
" id="DejaVuSans-105"/>
     <path d="M 52 44.1875 
Q 55.375 50.25 60.0625 53.125 
Q 64.75 56 71.09375 56 
Q 79.640625 56 84.28125 50.015625 
Q 88.921875 44.046875 88.921875 33.015625 
L 88.921875 0 
L 79.890625 0 
L 79.890625 32.71875 
Q 79.890625 40.578125 77.09375 44.375 
Q 74.3125 48.1875 68.609375 48.1875 
Q 61.625 48.1875 57.5625 43.546875 
Q 53.515625 38.921875 53.515625 30.90625 
L 53.515625 0 
L 44.484375 0 
L 44.484375 32.71875 
Q 44.484375 40.625 41.703125 44.40625 
Q 38.921875 48.1875 33.109375 48.1875 
Q 26.21875 48.1875 22.15625 43.53125 
Q 18.109375 38.875 18.109375 30.90625 
L 18.109375 0 
L 9.078125 0 
L 9.078125 54.6875 
L 18.109375 54.6875 
L 18.109375 46.1875 
Q 21.1875 51.21875 25.484375 53.609375 
Q 29.78125 56 35.6875 56 
Q 41.65625 56 45.828125 52.96875 
Q 50 49.953125 52 44.1875 
z
" id="DejaVuSans-109"/>
     <path d="M 54.890625 33.015625 
L 54.890625 0 
L 45.90625 0 
L 45.90625 32.71875 
Q 45.90625 40.484375 42.875 44.328125 
Q 39.84375 48.1875 33.796875 48.1875 
Q 26.515625 48.1875 22.3125 43.546875 
Q 18.109375 38.921875 18.109375 30.90625 
L 18.109375 0 
L 9.078125 0 
L 9.078125 54.6875 
L 18.109375 54.6875 
L 18.109375 46.1875 
Q 21.34375 51.125 25.703125 53.5625 
Q 30.078125 56 35.796875 56 
Q 45.21875 56 50.046875 50.171875 
Q 54.890625 44.34375 54.890625 33.015625 
z
" id="DejaVuSans-110"/>
     <path id="DejaVuSans-32"/>
     <path d="M 48.78125 52.59375 
L 48.78125 44.1875 
Q 44.96875 46.296875 41.140625 47.34375 
Q 37.3125 48.390625 33.40625 48.390625 
Q 24.65625 48.390625 19.8125 42.84375 
Q 14.984375 37.3125 14.984375 27.296875 
Q 14.984375 17.28125 19.8125 11.734375 
Q 24.65625 6.203125 33.40625 6.203125 
Q 37.3125 6.203125 41.140625 7.25 
Q 44.96875 8.296875 48.78125 10.40625 
L 48.78125 2.09375 
Q 45.015625 0.34375 40.984375 -0.53125 
Q 36.96875 -1.421875 32.421875 -1.421875 
Q 20.0625 -1.421875 12.78125 6.34375 
Q 5.515625 14.109375 5.515625 27.296875 
Q 5.515625 40.671875 12.859375 48.328125 
Q 20.21875 56 33.015625 56 
Q 37.15625 56 41.109375 55.140625 
Q 45.0625 54.296875 48.78125 52.59375 
z
" id="DejaVuSans-99"/>
     <path d="M 45.40625 46.390625 
L 45.40625 75.984375 
L 54.390625 75.984375 
L 54.390625 0 
L 45.40625 0 
L 45.40625 8.203125 
Q 42.578125 3.328125 38.25 0.953125 
Q 33.9375 -1.421875 27.875 -1.421875 
Q 17.96875 -1.421875 11.734375 6.484375 
Q 5.515625 14.40625 5.515625 27.296875 
Q 5.515625 40.1875 11.734375 48.09375 
Q 17.96875 56 27.875 56 
Q 33.9375 56 38.25 53.625 
Q 42.578125 51.265625 45.40625 46.390625 
z
M 14.796875 27.296875 
Q 14.796875 17.390625 18.875 11.75 
Q 22.953125 6.109375 30.078125 6.109375 
Q 37.203125 6.109375 41.296875 11.75 
Q 45.40625 17.390625 45.40625 27.296875 
Q 45.40625 37.203125 41.296875 42.84375 
Q 37.203125 48.484375 30.078125 48.484375 
Q 22.953125 48.484375 18.875 42.84375 
Q 14.796875 37.203125 14.796875 27.296875 
z
" id="DejaVuSans-100"/>
    </defs>
    <g transform="translate(487.785563 63.7248)scale(0.12 -0.12)">
     <use xlink:href="#DejaVuSans-69"/>
     <use x="63.183594" xlink:href="#DejaVuSans-120"/>
     <use x="122.363281" xlink:href="#DejaVuSans-112"/>
     <use x="185.839844" xlink:href="#DejaVuSans-101"/>
     <use x="247.363281" xlink:href="#DejaVuSans-114"/>
     <use x="288.476562" xlink:href="#DejaVuSans-105"/>
     <use x="316.259766" xlink:href="#DejaVuSans-109"/>
     <use x="413.671875" xlink:href="#DejaVuSans-101"/>
     <use x="475.195312" xlink:href="#DejaVuSans-110"/>
     <use x="538.574219" xlink:href="#DejaVuSans-116"/>
     <use x="577.783203" xlink:href="#DejaVuSans-111"/>
     <use x="638.964844" xlink:href="#DejaVuSans-32"/>
     <use x="670.751953" xlink:href="#DejaVuSans-99"/>
     <use x="725.732422" xlink:href="#DejaVuSans-111"/>
     <use x="786.914062" xlink:href="#DejaVuSans-110"/>
     <use x="850.292969" xlink:href="#DejaVuSans-99"/>
     <use x="905.273438" xlink:href="#DejaVuSans-97"/>
     <use x="966.552734" xlink:href="#DejaVuSans-116"/>
     <use x="1005.761719" xlink:href="#DejaVuSans-101"/>
     <use x="1067.285156" xlink:href="#DejaVuSans-110"/>
     <use x="1130.664062" xlink:href="#DejaVuSans-97"/>
     <use x="1191.943359" xlink:href="#DejaVuSans-100"/>
     <use x="1255.419922" xlink:href="#DejaVuSans-111"/>
    </g>
   </g>
   <g id="legend_1">
    <g id="patch_7">
     <path d="M 145.24 165.79355 
L 226.5025 165.79355 
Q 228.5025 165.79355 228.5025 163.79355 
L 228.5025 76.7248 
Q 228.5025 74.7248 226.5025 74.7248 
L 145.24 74.7248 
Q 143.24 74.7248 143.24 76.7248 
L 143.24 163.79355 
Q 143.24 165.79355 145.24 165.79355 
z
" style="fill:#e5e5e5;opacity:0.8;stroke:#cccccc;stroke-linejoin:miter;stroke-width:0.5;"/>
    </g>
    <g id="line2d_38">
     <path d="M 147.24 82.823238 
L 167.24 82.823238 
" style="fill:none;stroke:#e24a33;stroke-linecap:square;stroke-width:1.5;"/>
    </g>
    <g id="line2d_39"/>
    <g id="text_16">
     <!-- TGS-822 -->
     <defs>
      <path d="M -0.296875 72.90625 
L 61.375 72.90625 
L 61.375 64.59375 
L 35.5 64.59375 
L 35.5 0 
L 25.59375 0 
L 25.59375 64.59375 
L -0.296875 64.59375 
z
" id="DejaVuSans-84"/>
      <path d="M 59.515625 10.40625 
L 59.515625 29.984375 
L 43.40625 29.984375 
L 43.40625 38.09375 
L 69.28125 38.09375 
L 69.28125 6.78125 
Q 63.578125 2.734375 56.6875 0.65625 
Q 49.8125 -1.421875 42 -1.421875 
Q 24.90625 -1.421875 15.25 8.5625 
Q 5.609375 18.5625 5.609375 36.375 
Q 5.609375 54.25 15.25 64.234375 
Q 24.90625 74.21875 42 74.21875 
Q 49.125 74.21875 55.546875 72.453125 
Q 61.96875 70.703125 67.390625 67.28125 
L 67.390625 56.78125 
Q 61.921875 61.421875 55.765625 63.765625 
Q 49.609375 66.109375 42.828125 66.109375 
Q 29.4375 66.109375 22.71875 58.640625 
Q 16.015625 51.171875 16.015625 36.375 
Q 16.015625 21.625 22.71875 14.15625 
Q 29.4375 6.6875 42.828125 6.6875 
Q 48.046875 6.6875 52.140625 7.59375 
Q 56.25 8.5 59.515625 10.40625 
z
" id="DejaVuSans-71"/>
      <path d="M 53.515625 70.515625 
L 53.515625 60.890625 
Q 47.90625 63.578125 42.921875 64.890625 
Q 37.9375 66.21875 33.296875 66.21875 
Q 25.25 66.21875 20.875 63.09375 
Q 16.5 59.96875 16.5 54.203125 
Q 16.5 49.359375 19.40625 46.890625 
Q 22.3125 44.4375 30.421875 42.921875 
L 36.375 41.703125 
Q 47.40625 39.59375 52.65625 34.296875 
Q 57.90625 29 57.90625 20.125 
Q 57.90625 9.515625 50.796875 4.046875 
Q 43.703125 -1.421875 29.984375 -1.421875 
Q 24.8125 -1.421875 18.96875 -0.25 
Q 13.140625 0.921875 6.890625 3.21875 
L 6.890625 13.375 
Q 12.890625 10.015625 18.65625 8.296875 
Q 24.421875 6.59375 29.984375 6.59375 
Q 38.421875 6.59375 43.015625 9.90625 
Q 47.609375 13.234375 47.609375 19.390625 
Q 47.609375 24.75 44.3125 27.78125 
Q 41.015625 30.8125 33.5 32.328125 
L 27.484375 33.5 
Q 16.453125 35.6875 11.515625 40.375 
Q 6.59375 45.0625 6.59375 53.421875 
Q 6.59375 63.09375 13.40625 68.65625 
Q 20.21875 74.21875 32.171875 74.21875 
Q 37.3125 74.21875 42.625 73.28125 
Q 47.953125 72.359375 53.515625 70.515625 
z
" id="DejaVuSans-83"/>
      <path d="M 4.890625 31.390625 
L 31.203125 31.390625 
L 31.203125 23.390625 
L 4.890625 23.390625 
z
" id="DejaVuSans-45"/>
      <path d="M 31.78125 34.625 
Q 24.75 34.625 20.71875 30.859375 
Q 16.703125 27.09375 16.703125 20.515625 
Q 16.703125 13.921875 20.71875 10.15625 
Q 24.75 6.390625 31.78125 6.390625 
Q 38.8125 6.390625 42.859375 10.171875 
Q 46.921875 13.96875 46.921875 20.515625 
Q 46.921875 27.09375 42.890625 30.859375 
Q 38.875 34.625 31.78125 34.625 
z
M 21.921875 38.8125 
Q 15.578125 40.375 12.03125 44.71875 
Q 8.5 49.078125 8.5 55.328125 
Q 8.5 64.0625 14.71875 69.140625 
Q 20.953125 74.21875 31.78125 74.21875 
Q 42.671875 74.21875 48.875 69.140625 
Q 55.078125 64.0625 55.078125 55.328125 
Q 55.078125 49.078125 51.53125 44.71875 
Q 48 40.375 41.703125 38.8125 
Q 48.828125 37.15625 52.796875 32.3125 
Q 56.78125 27.484375 56.78125 20.515625 
Q 56.78125 9.90625 50.3125 4.234375 
Q 43.84375 -1.421875 31.78125 -1.421875 
Q 19.734375 -1.421875 13.25 4.234375 
Q 6.78125 9.90625 6.78125 20.515625 
Q 6.78125 27.484375 10.78125 32.3125 
Q 14.796875 37.15625 21.921875 38.8125 
z
M 18.3125 54.390625 
Q 18.3125 48.734375 21.84375 45.5625 
Q 25.390625 42.390625 31.78125 42.390625 
Q 38.140625 42.390625 41.71875 45.5625 
Q 45.3125 48.734375 45.3125 54.390625 
Q 45.3125 60.0625 41.71875 63.234375 
Q 38.140625 66.40625 31.78125 66.40625 
Q 25.390625 66.40625 21.84375 63.234375 
Q 18.3125 60.0625 18.3125 54.390625 
z
" id="DejaVuSans-56"/>
     </defs>
     <g transform="translate(175.24 86.323238)scale(0.1 -0.1)">
      <use xlink:href="#DejaVuSans-84"/>
      <use x="61.083984" xlink:href="#DejaVuSans-71"/>
      <use x="138.574219" xlink:href="#DejaVuSans-83"/>
      <use x="202.050781" xlink:href="#DejaVuSans-45"/>
      <use x="238.134766" xlink:href="#DejaVuSans-56"/>
      <use x="301.757812" xlink:href="#DejaVuSans-50"/>
      <use x="365.380859" xlink:href="#DejaVuSans-50"/>
     </g>
    </g>
    <g id="line2d_40">
     <path d="M 147.24 97.501363 
L 167.24 97.501363 
" style="fill:none;stroke:#348abd;stroke-linecap:square;stroke-width:1.5;"/>
    </g>
    <g id="line2d_41"/>
    <g id="text_17">
     <!-- TGS-825 -->
     <g transform="translate(175.24 101.001363)scale(0.1 -0.1)">
      <use xlink:href="#DejaVuSans-84"/>
      <use x="61.083984" xlink:href="#DejaVuSans-71"/>
      <use x="138.574219" xlink:href="#DejaVuSans-83"/>
      <use x="202.050781" xlink:href="#DejaVuSans-45"/>
      <use x="238.134766" xlink:href="#DejaVuSans-56"/>
      <use x="301.757812" xlink:href="#DejaVuSans-50"/>
      <use x="365.380859" xlink:href="#DejaVuSans-53"/>
     </g>
    </g>
    <g id="line2d_42">
     <path d="M 147.24 112.179487 
L 167.24 112.179487 
" style="fill:none;stroke:#988ed5;stroke-linecap:square;stroke-width:1.5;"/>
    </g>
    <g id="line2d_43"/>
    <g id="text_18">
     <!-- TGS-2610 -->
     <defs>
      <path d="M 33.015625 40.375 
Q 26.375 40.375 22.484375 35.828125 
Q 18.609375 31.296875 18.609375 23.390625 
Q 18.609375 15.53125 22.484375 10.953125 
Q 26.375 6.390625 33.015625 6.390625 
Q 39.65625 6.390625 43.53125 10.953125 
Q 47.40625 15.53125 47.40625 23.390625 
Q 47.40625 31.296875 43.53125 35.828125 
Q 39.65625 40.375 33.015625 40.375 
z
M 52.59375 71.296875 
L 52.59375 62.3125 
Q 48.875 64.0625 45.09375 64.984375 
Q 41.3125 65.921875 37.59375 65.921875 
Q 27.828125 65.921875 22.671875 59.328125 
Q 17.53125 52.734375 16.796875 39.40625 
Q 19.671875 43.65625 24.015625 45.921875 
Q 28.375 48.1875 33.59375 48.1875 
Q 44.578125 48.1875 50.953125 41.515625 
Q 57.328125 34.859375 57.328125 23.390625 
Q 57.328125 12.15625 50.6875 5.359375 
Q 44.046875 -1.421875 33.015625 -1.421875 
Q 20.359375 -1.421875 13.671875 8.265625 
Q 6.984375 17.96875 6.984375 36.375 
Q 6.984375 53.65625 15.1875 63.9375 
Q 23.390625 74.21875 37.203125 74.21875 
Q 40.921875 74.21875 44.703125 73.484375 
Q 48.484375 72.75 52.59375 71.296875 
z
" id="DejaVuSans-54"/>
     </defs>
     <g transform="translate(175.24 115.679487)scale(0.1 -0.1)">
      <use xlink:href="#DejaVuSans-84"/>
      <use x="61.083984" xlink:href="#DejaVuSans-71"/>
      <use x="138.574219" xlink:href="#DejaVuSans-83"/>
      <use x="202.050781" xlink:href="#DejaVuSans-45"/>
      <use x="238.134766" xlink:href="#DejaVuSans-50"/>
      <use x="301.757812" xlink:href="#DejaVuSans-54"/>
      <use x="365.380859" xlink:href="#DejaVuSans-49"/>
      <use x="429.003906" xlink:href="#DejaVuSans-48"/>
     </g>
    </g>
    <g id="line2d_44">
     <path d="M 147.24 126.857613 
L 167.24 126.857613 
" style="fill:none;stroke:#777777;stroke-linecap:square;stroke-width:1.5;"/>
    </g>
    <g id="line2d_45"/>
    <g id="text_19">
     <!-- TGS-826 -->
     <g transform="translate(175.24 130.357613)scale(0.1 -0.1)">
      <use xlink:href="#DejaVuSans-84"/>
      <use x="61.083984" xlink:href="#DejaVuSans-71"/>
      <use x="138.574219" xlink:href="#DejaVuSans-83"/>
      <use x="202.050781" xlink:href="#DejaVuSans-45"/>
      <use x="238.134766" xlink:href="#DejaVuSans-56"/>
      <use x="301.757812" xlink:href="#DejaVuSans-50"/>
      <use x="365.380859" xlink:href="#DejaVuSans-54"/>
     </g>
    </g>
    <g id="line2d_46">
     <path d="M 147.24 141.535737 
L 167.24 141.535737 
" style="fill:none;stroke:#fbc15e;stroke-linecap:square;stroke-width:1.5;"/>
    </g>
    <g id="line2d_47"/>
    <g id="text_20">
     <!-- TGS-822 -->
     <g transform="translate(175.24 145.035737)scale(0.1 -0.1)">
      <use xlink:href="#DejaVuSans-84"/>
      <use x="61.083984" xlink:href="#DejaVuSans-71"/>
      <use x="138.574219" xlink:href="#DejaVuSans-83"/>
      <use x="202.050781" xlink:href="#DejaVuSans-45"/>
      <use x="238.134766" xlink:href="#DejaVuSans-56"/>
      <use x="301.757812" xlink:href="#DejaVuSans-50"/>
      <use x="365.380859" xlink:href="#DejaVuSans-50"/>
     </g>
    </g>
    <g id="line2d_48">
     <path d="M 147.24 156.213863 
L 167.24 156.213863 
" style="fill:none;stroke:#8eba42;stroke-linecap:square;stroke-width:1.5;"/>
    </g>
    <g id="line2d_49"/>
    <g id="text_21">
     <!-- TGS-826 -->
     <g transform="translate(175.24 159.713863)scale(0.1 -0.1)">
      <use xlink:href="#DejaVuSans-84"/>
      <use x="61.083984" xlink:href="#DejaVuSans-71"/>
      <use x="138.574219" xlink:href="#DejaVuSans-83"/>
      <use x="202.050781" xlink:href="#DejaVuSans-45"/>
      <use x="238.134766" xlink:href="#DejaVuSans-56"/>
      <use x="301.757812" xlink:href="#DejaVuSans-50"/>
      <use x="365.380859" xlink:href="#DejaVuSans-54"/>
     </g>
    </g>
   </g>
  </g>
 </g>
 <defs>
  <clipPath id="p6dfaa88f3a">
   <rect height="447.4008" width="857.088" x="138.24" y="69.7248"/>
  </clipPath>
 </defs>
</svg>
